<?xml version="1.0" encoding="UTF-8" standalone="no"?>
<!-- Created with Inkscape (http://www.inkscape.org/) -->

<svg
   version="1.1"
   id="svg2"
   width="958.64246"
   height="63.512321"
   viewBox="0 0 958.64245 63.512321"
   sodipodi:docname="annualreport-2022.svg"
   inkscape:version="1.2.2 (732a01da63, 2022-12-09)"
   xmlns:inkscape="http://www.inkscape.org/namespaces/inkscape"
   xmlns:sodipodi="http://sodipodi.sourceforge.net/DTD/sodipodi-0.dtd"
   xmlns="http://www.w3.org/2000/svg"
   xmlns:svg="http://www.w3.org/2000/svg">
  <defs
     id="defs6">
    <clipPath
       clipPathUnits="userSpaceOnUse"
       id="clipPath32">
      <path
         d="M 0,0 H 576 V 783 H 0 Z"
         id="path30" />
    </clipPath>
  </defs>
  <sodipodi:namedview
     id="namedview4"
     pagecolor="#ffffff"
     bordercolor="#000000"
     borderopacity="0.25"
     inkscape:showpageshadow="2"
     inkscape:pageopacity="0.0"
     inkscape:pagecheckerboard="0"
     inkscape:deskcolor="#d1d1d1"
     showgrid="false"
     inkscape:zoom="1.4382636"
     inkscape:cx="444.98102"
     inkscape:cy="-3.1287728"
     inkscape:window-width="1920"
     inkscape:window-height="991"
     inkscape:window-x="-9"
     inkscape:window-y="-9"
     inkscape:window-maximized="1"
     inkscape:current-layer="g8" />
  <g
     id="g8"
     inkscape:groupmode="layer"
     inkscape:label="annualreport-2022"
     transform="matrix(1.3333333,0,0,-1.3333333,264.87701,71.418055)">
    <g
       id="g26"
       transform="matrix(3.2081035,0,0,3.2081035,-314.15013,-68.398607)"
       style="fill:#000000">
      <g
         id="g28"
         clip-path="url(#clipPath32)"
         style="fill:#000000">
        <g
           id="g34"
           transform="translate(40.1102,37.7038)"
           style="fill:#000000">
          <path
             d="M 0,0 H 6.449 V -0.468 H 6.1 C 5.417,-0.468 4.97,-0.524 4.759,-0.636 4.547,-0.751 4.406,-0.961 4.34,-1.267 4.271,-1.577 4.236,-2.31 4.236,-3.466 V -8.22 c 0,-1.181 -0.045,-2.074 -0.137,-2.691 -0.094,-0.616 -0.349,-1.217 -0.774,-1.803 -0.423,-0.582 -0.989,-1.035 -1.694,-1.351 -0.707,-0.314 -1.527,-0.47 -2.463,-0.47 -1.051,0 -1.861,0.195 -2.427,0.581 -0.567,0.389 -0.851,0.854 -0.851,1.388 0,0.323 0.101,0.595 0.304,0.817 0.204,0.219 0.453,0.327 0.75,0.327 0.303,0 0.557,-0.097 0.759,-0.294 0.205,-0.197 0.306,-0.44 0.306,-0.728 0,-0.171 -0.042,-0.346 -0.125,-0.533 -0.075,-0.163 -0.113,-0.284 -0.113,-0.365 0,-0.218 0.128,-0.39 0.387,-0.512 0.261,-0.12 0.581,-0.184 0.964,-0.184 0.778,0 1.432,0.248 1.965,0.743 0.532,0.496 0.852,1.081 0.962,1.756 0.108,0.672 0.164,1.785 0.164,3.335 v 4.744 c 0,1.107 -0.034,1.82 -0.098,2.142 -0.066,0.321 -0.203,0.543 -0.413,0.666 -0.208,0.123 -0.667,0.184 -1.372,0.184 H 0 Z"
             style="fill:#000000;fill-opacity:1;fill-rule:nonzero;stroke:none"
             id="path36" />
        </g>
        <g
           id="g38"
           transform="translate(52.2608,30.8548)"
           style="fill:#000000">
          <path
             d="M 0,0 H 0.998 C 1.801,0 2.449,0.077 2.943,0.241 3.436,0.399 3.849,0.74 4.177,1.254 4.507,1.77 4.671,2.404 4.671,3.158 4.671,4.311 4.388,5.157 3.822,5.697 3.257,6.237 2.34,6.507 1.07,6.507 0.604,6.507 0.247,6.492 0,6.463 Z m 0,-0.501 v -2.938 c 0,-1.102 0.027,-1.821 0.079,-2.16 0.052,-0.339 0.19,-0.594 0.417,-0.757 0.226,-0.167 0.654,-0.249 1.281,-0.249 h 0.464 v -0.467 h -6.414 v 0.467 h 0.372 c 0.599,0 1.014,0.078 1.244,0.224 0.23,0.153 0.378,0.389 0.44,0.709 0.061,0.315 0.092,1.055 0.092,2.221 v 6.833 c 0,1.111 -0.031,1.824 -0.092,2.147 -0.062,0.323 -0.2,0.544 -0.414,0.668 -0.213,0.123 -0.676,0.184 -1.382,0.184 h -0.26 v 0.468 l 1.752,0.071 c 1.4,0.057 2.492,0.084 3.276,0.084 1.442,0 2.554,-0.113 3.332,-0.337 C 4.968,6.439 5.606,6.041 6.105,5.463 6.604,4.891 6.853,4.164 6.853,3.288 6.853,2.527 6.681,1.858 6.342,1.276 6.003,0.694 5.517,0.252 4.883,-0.048 4.247,-0.349 3.131,-0.501 1.533,-0.501 Z"
             style="fill:#000000;fill-opacity:1;fill-rule:nonzero;stroke:none"
             id="path40" />
        </g>
        <g
           id="g42"
           transform="translate(70.735,26.1852)"
           style="fill:#000000">
          <path
             d="M 0,0 5.063,11.519 H 9.36 V 11.051 H 8.846 c -0.688,0 -1.138,-0.056 -1.35,-0.168 C 7.283,10.767 7.143,10.558 7.071,10.252 6.998,9.942 6.963,9.208 6.963,8.052 V 1.219 c 0,-1.096 0.027,-1.813 0.082,-2.153 0.054,-0.337 0.193,-0.589 0.415,-0.753 0.223,-0.166 0.652,-0.248 1.283,-0.248 H 9.36 V -2.403 H 2.664 v 0.468 H 3.16 c 0.593,0 1.004,0.078 1.236,0.224 0.228,0.153 0.378,0.388 0.443,0.706 0.066,0.318 0.098,1.058 0.098,2.224 V 10.08 L -0.547,-2.403 H -1.046 L -6.584,10.08 V 1.923 c 0,-1.116 0.033,-1.875 0.102,-2.28 0.069,-0.403 0.28,-0.756 0.636,-1.061 0.356,-0.304 0.859,-0.476 1.503,-0.517 v -0.468 h -5.014 v 0.468 c 0.598,0.032 1.086,0.196 1.461,0.486 0.377,0.292 0.606,0.651 0.686,1.072 0.085,0.427 0.127,1.213 0.127,2.365 v 6.064 c 0,1.108 -0.033,1.824 -0.098,2.147 -0.066,0.323 -0.204,0.544 -0.415,0.668 -0.208,0.122 -0.668,0.184 -1.379,0.184 h -0.382 v 0.468 h 4.247 z"
             style="fill:#000000;fill-opacity:1;fill-rule:nonzero;stroke:none"
             id="path44" />
        </g>
        <g
           id="g46"
           transform="translate(82.7096,29.1726)"
           style="fill:#000000">
          <path
             d="M 0,0 C 0,-1.722 0.34,-3.013 1.026,-3.879 1.708,-4.74 2.733,-5.171 4.1,-5.171 c 1.2,0 2.148,0.431 2.843,1.292 0.696,0.866 1.046,2.151 1.046,3.863 0,1.664 -0.343,2.942 -1.029,3.828 C 6.273,4.697 5.279,5.142 3.975,5.142 2.69,5.142 1.708,4.709 1.026,3.841 0.34,2.977 0,1.698 0,0 m -1.823,0.056 c 0,1.651 0.552,2.978 1.656,3.979 1.104,0.999 2.48,1.499 4.129,1.499 C 5.627,5.534 7.018,5.04 8.137,4.05 9.252,3.06 9.811,1.71 9.811,0 c 0,-1.658 -0.536,-2.999 -1.603,-4.025 -1.071,-1.029 -2.478,-1.54 -4.221,-1.54 -1.698,0 -3.091,0.511 -4.177,1.54 -1.089,1.026 -1.633,2.388 -1.633,4.081"
             style="fill:#000000;fill-opacity:1;fill-rule:nonzero;stroke:none"
             id="path48" />
        </g>
        <g
           id="g50"
           transform="translate(247.049,29.1726)"
           style="fill:#000000">
          <path
             d="M 0,0 C 0,-1.722 0.343,-3.013 1.027,-3.879 1.709,-4.74 2.734,-5.171 4.1,-5.171 c 1.199,0 2.148,0.431 2.844,1.292 0.697,0.866 1.045,2.151 1.045,3.863 0,1.664 -0.341,2.942 -1.031,3.828 C 6.276,4.697 5.278,5.142 3.975,5.142 2.691,5.142 1.709,4.709 1.027,3.841 0.343,2.977 0,1.698 0,0 m -1.823,0.056 c 0,1.651 0.554,2.978 1.656,3.979 C 0.937,5.034 2.317,5.534 3.966,5.534 5.627,5.534 7.022,5.04 8.138,4.05 9.255,3.06 9.81,1.71 9.81,0 c 0,-1.658 -0.535,-2.999 -1.605,-4.025 -1.068,-1.029 -2.473,-1.54 -4.217,-1.54 -1.698,0 -3.089,0.511 -4.176,1.54 -1.09,1.026 -1.635,2.388 -1.635,4.081"
             style="fill:#000000;fill-opacity:1;fill-rule:nonzero;stroke:none"
             id="path52" />
        </g>
        <g
           id="g54"
           transform="translate(97.1645,29.3247)"
           style="fill:#000000">
          <path
             d="m 0,0 c 0.389,0.012 0.789,0.026 1.207,0.047 0.415,0.02 0.775,0.078 1.082,0.175 0.307,0.097 0.555,0.234 0.744,0.414 0.19,0.182 0.339,0.424 0.446,0.716 0.109,0.296 0.165,0.659 0.165,1.092 0,0.754 -0.186,1.357 -0.557,1.809 -0.37,0.453 -1.18,0.68 -2.425,0.68 C 0.47,4.933 0.247,4.923 0,4.902 Z M 8.043,-5.522 H 5.178 C 4.673,-5.161 3.895,-4.233 2.85,-2.726 2.514,-2.245 2.166,-1.785 1.805,-1.345 1.442,-0.904 1.194,-0.633 1.059,-0.537 0.921,-0.439 0.712,-0.392 0.424,-0.392 H 0 v -2.356 c 0,-0.837 0.02,-1.387 0.058,-1.643 0.04,-0.259 0.147,-0.453 0.318,-0.578 0.172,-0.126 0.501,-0.187 0.985,-0.187 h 0.518 v -0.366 h -5.131 v 0.366 h 0.347 c 0.46,0 0.777,0.056 0.955,0.172 0.177,0.117 0.289,0.297 0.335,0.544 0.049,0.244 0.075,0.812 0.075,1.707 v 5.25 C -1.54,3.37 -1.566,3.92 -1.615,4.168 -1.662,4.415 -1.77,4.585 -1.935,4.68 -2.1,4.774 -2.46,4.82 -3.01,4.82 h -0.186 v 0.367 l 1.528,0.073 c 1.021,0.043 1.829,0.066 2.425,0.066 1.021,0 1.849,-0.094 2.487,-0.282 C 3.879,4.851 4.397,4.541 4.792,4.109 5.184,3.677 5.38,3.16 5.38,2.559 5.38,1.857 5.124,1.26 4.614,0.763 4.102,0.269 3.353,-0.041 2.36,-0.162 2.809,-0.373 3.527,-1.15 4.518,-2.489 5.326,-3.574 5.956,-4.281 6.415,-4.622 6.875,-4.956 7.417,-5.136 8.043,-5.156 Z"
             style="fill:#000000;fill-opacity:1;fill-rule:nonzero;stroke:none"
             id="path56" />
        </g>
        <g
           id="g58"
           transform="translate(112.619,28.3746)"
           style="fill:#000000">
          <path
             d="M 0,0 H 4.627 V -0.364 C 4.117,-0.364 3.769,-0.42 3.59,-0.522 3.406,-0.624 3.285,-0.795 3.227,-1.036 3.17,-1.277 3.141,-1.859 3.141,-2.783 V -3.926 C 3.017,-3.905 2.9,-3.894 2.802,-3.894 2.397,-3.894 1.866,-4.019 1.21,-4.264 0.316,-4.6 -0.513,-4.768 -1.274,-4.768 c -1.531,0 -2.804,0.506 -3.818,1.515 -1.014,1.007 -1.523,2.282 -1.523,3.831 0,1.53 0.488,2.874 1.457,4.025 0.972,1.153 2.289,1.728 3.955,1.728 1.434,0 2.619,-0.523 3.559,-1.573 0.18,0.372 0.288,0.777 0.335,1.208 H 3.057 V 2.381 H 2.691 C 2.54,3.476 2.122,4.342 1.441,4.983 0.76,5.618 -0.067,5.94 -1.043,5.94 -2.048,5.94 -2.923,5.565 -3.67,4.819 -4.417,4.075 -4.789,2.75 -4.789,0.845 c 0,-1.897 0.358,-3.239 1.074,-4.033 0.719,-0.79 1.607,-1.185 2.672,-1.185 0.546,0 1.042,0.111 1.487,0.336 0.447,0.222 0.752,0.494 0.911,0.816 0.164,0.323 0.246,0.729 0.246,1.22 0,0.573 -0.041,0.958 -0.118,1.147 C 1.408,-0.661 1.289,-0.532 1.13,-0.465 0.972,-0.4 0.679,-0.364 0.256,-0.364 H 0 Z"
             style="fill:#000000;fill-opacity:1;fill-rule:nonzero;stroke:none"
             id="path60" />
        </g>
        <g
           id="g62"
           transform="translate(124.8494,28.1495)"
           style="fill:#000000">
          <path
             d="M 0,0 -1.866,4.528 -3.735,0 Z m 0.162,-0.394 h -4.06 L -4.179,-1.073 C -4.589,-2.059 -4.794,-2.701 -4.794,-3 c 0,-0.324 0.108,-0.566 0.327,-0.733 0.22,-0.167 0.502,-0.248 0.849,-0.248 V -4.347 H -6.84 v 0.366 c 0.475,0.076 0.828,0.241 1.064,0.502 0.232,0.262 0.513,0.81 0.84,1.649 0.035,0.079 0.164,0.384 0.389,0.918 l 3.125,7.413 h 0.313 L 2.455,-1.994 2.942,-3.113 C 3.055,-3.365 3.204,-3.564 3.389,-3.706 3.577,-3.856 3.857,-3.945 4.23,-3.981 V -4.347 H 0.027 v 0.366 c 0.514,0 0.862,0.039 1.043,0.114 0.181,0.077 0.272,0.229 0.272,0.454 0,0.115 -0.121,0.461 -0.364,1.035 z"
             style="fill:#000000;fill-opacity:1;fill-rule:nonzero;stroke:none"
             id="path64" />
        </g>
        <g
           id="g66"
           transform="translate(140.0483,23.5529)"
           style="fill:#000000">
          <path
             d="M 0,0 -7.594,10.044 V 2.615 c 0,-0.617 0.03,-1.024 0.089,-1.219 0.061,-0.192 0.231,-0.373 0.514,-0.535 0.284,-0.164 0.709,-0.246 1.276,-0.246 V 0.25 h -3.981 v 0.365 c 0.506,0.037 0.893,0.129 1.16,0.281 0.267,0.149 0.423,0.311 0.474,0.485 0.051,0.174 0.074,0.585 0.074,1.231 v 5.676 c 0,0.821 -0.038,1.372 -0.115,1.652 -0.076,0.275 -0.197,0.456 -0.364,0.535 -0.168,0.079 -0.541,0.117 -1.116,0.117 v 0.367 h 3.193 l 6.336,-8.38 v 6.405 c 0,0.472 -0.048,0.804 -0.146,0.994 -0.096,0.19 -0.297,0.338 -0.595,0.45 -0.301,0.111 -0.661,0.164 -1.082,0.164 v 0.367 H 1.992 V 10.592 C 1.543,10.557 1.191,10.469 0.935,10.333 0.678,10.198 0.511,10.034 0.444,9.841 0.373,9.647 0.337,9.321 0.337,8.863 V 0 Z"
             style="fill:#000000;fill-opacity:1;fill-rule:nonzero;stroke:none"
             id="path68" />
        </g>
        <g
           id="g70"
           transform="translate(160.2835,28.968)"
           style="fill:#000000">
          <path
             d="M 0,0 H 0.467 V -4.89 H 0 c -0.123,0.556 -0.346,1.046 -0.669,1.473 -1.218,-1.38 -2.774,-2.064 -4.667,-2.064 -2.001,0 -3.636,0.635 -4.905,1.907 -1.269,1.271 -1.904,2.952 -1.904,5.044 0,1.374 0.292,2.669 0.877,3.882 0.585,1.215 1.404,2.115 2.453,2.703 1.048,0.587 2.197,0.882 3.448,0.882 1.033,0 1.974,-0.213 2.814,-0.639 0.84,-0.424 1.468,-0.895 1.884,-1.412 0.299,0.579 0.484,1.18 0.542,1.8 H 0.342 L 0.467,3.424 H 0 c -0.307,1.867 -0.931,3.173 -1.877,3.909 -0.941,0.736 -2.006,1.104 -3.193,1.104 -1.449,0 -2.602,-0.59 -3.458,-1.776 -0.856,-1.183 -1.279,-2.877 -1.279,-5.081 0,-2.087 0.46,-3.688 1.395,-4.804 0.938,-1.11 2.1,-1.666 3.485,-1.666 0.743,0 1.504,0.179 2.28,0.543 0.776,0.363 1.391,0.977 1.843,1.84 C -0.349,-1.643 -0.082,-0.808 0,0"
             style="fill:#000000;fill-opacity:1;fill-rule:nonzero;stroke:none"
             id="path72" />
        </g>
        <g
           id="g74"
           transform="translate(172.0288,29.2137)"
           style="fill:#000000">
          <path
             d="m 0,0 h -5.576 v -2.589 c 0,-0.844 0.024,-1.398 0.063,-1.658 0.041,-0.261 0.153,-0.455 0.321,-0.582 0.175,-0.127 0.505,-0.188 0.99,-0.188 h 0.279 v -0.365 h -4.85 v 0.365 h 0.28 c 0.46,0 0.777,0.057 0.955,0.173 0.18,0.114 0.296,0.295 0.345,0.538 0.047,0.245 0.074,0.816 0.074,1.712 v 5.248 c 0,0.854 -0.027,1.404 -0.074,1.652 -0.049,0.245 -0.159,0.415 -0.321,0.512 -0.159,0.093 -0.515,0.142 -1.06,0.142 h -0.199 v 0.363 h 4.85 V 4.96 H -4.122 C -4.651,4.96 -4.997,4.916 -5.161,4.829 -5.326,4.741 -5.439,4.58 -5.492,4.345 -5.551,4.107 -5.576,3.544 -5.576,2.654 V 0.532 H 0 V 2.654 C 0,3.508 -0.022,4.058 -0.068,4.306 -0.117,4.551 -0.221,4.721 -0.38,4.818 -0.538,4.911 -0.887,4.96 -1.426,4.96 H -1.708 V 5.323 H 3.14 V 4.96 H 2.986 C 2.455,4.96 2.112,4.916 1.954,4.829 1.79,4.741 1.681,4.58 1.627,4.345 1.57,4.107 1.543,3.544 1.543,2.654 v -5.248 c 0,-0.841 0.021,-1.393 0.061,-1.655 0.037,-0.261 0.144,-0.453 0.315,-0.58 0.177,-0.127 0.5,-0.188 0.979,-0.188 H 3.14 v -0.365 h -4.848 v 0.365 h 0.368 c 0.45,0 0.762,0.057 0.936,0.173 0.175,0.117 0.287,0.297 0.336,0.541 C -0.022,-4.058 0,-3.487 0,-2.589 Z"
             style="fill:#000000;fill-opacity:1;fill-rule:nonzero;stroke:none"
             id="path76" />
        </g>
        <g
           id="g78"
           transform="translate(183.0709,28.1744)"
           style="fill:#000000">
          <path
             d="M 0,0 -1.865,4.529 -3.735,0 Z m 0.159,-0.393 h -4.054 l -0.284,-0.681 c -0.409,-0.983 -0.613,-1.624 -0.613,-1.924 0,-0.321 0.106,-0.567 0.327,-0.731 0.219,-0.166 0.501,-0.249 0.849,-0.249 v -0.364 h -3.226 v 0.364 c 0.478,0.074 0.832,0.241 1.067,0.501 0.231,0.26 0.512,0.813 0.843,1.651 0.033,0.078 0.16,0.385 0.385,0.915 l 3.125,7.417 h 0.314 L 2.457,-1.989 2.943,-3.11 c 0.11,-0.25 0.261,-0.452 0.448,-0.598 0.186,-0.143 0.465,-0.233 0.84,-0.27 V -4.342 H 0.027 v 0.364 c 0.512,0 0.863,0.039 1.043,0.112 0.18,0.079 0.273,0.231 0.273,0.453 0,0.117 -0.121,0.462 -0.365,1.038 z"
             style="fill:#000000;fill-opacity:1;fill-rule:nonzero;stroke:none"
             id="path80" />
        </g>
        <g
           id="g82"
           transform="translate(188.6681,23.9417)"
           style="fill:#000000">
          <path
             d="m 0,0 v 3.451 h 0.392 c 0.447,-2.244 1.51,-3.364 3.182,-3.364 0.75,0 1.337,0.216 1.748,0.642 C 5.735,1.159 5.94,1.637 5.94,2.168 5.94,2.703 5.761,3.154 5.398,3.517 5.038,3.874 4.375,4.257 3.412,4.667 2.552,5.035 1.906,5.358 1.472,5.635 1.037,5.911 0.694,6.268 0.449,6.711 0.206,7.155 0.085,7.625 0.085,8.125 c 0,0.763 0.264,1.397 0.796,1.906 0.532,0.508 1.202,0.763 2.018,0.763 0.456,0 0.883,-0.074 1.285,-0.222 C 4.585,10.427 4.996,10.12 5.418,9.658 5.663,9.946 5.8,10.259 5.832,10.595 H 6.165 V 7.794 H 5.832 C 5.63,8.601 5.273,9.24 4.761,9.704 4.251,10.168 3.657,10.399 2.983,10.399 2.342,10.399 1.871,10.229 1.57,9.888 1.272,9.547 1.121,9.172 1.121,8.765 1.121,8.274 1.311,7.859 1.687,7.522 2.055,7.178 2.726,6.786 3.689,6.354 4.61,5.941 5.283,5.608 5.702,5.358 6.121,5.108 6.458,4.761 6.714,4.319 6.963,3.874 7.093,3.366 7.093,2.787 7.093,1.872 6.788,1.127 6.172,0.554 5.562,-0.02 4.746,-0.307 3.724,-0.307 2.546,-0.307 1.564,0.145 0.779,1.043 0.605,0.798 0.476,0.45 0.392,0 Z"
             style="fill:#000000;fill-opacity:1;fill-rule:nonzero;stroke:none"
             id="path84" />
        </g>
        <g
           id="g86"
           transform="translate(206.2821,27.1674)"
           style="fill:#000000">
          <path
             d="M 0,0 H 0.365 L 0.132,-3.335 h -8.82 v 0.363 h 0.222 c 0.525,0 0.868,0.071 1.02,0.214 0.156,0.142 0.25,0.323 0.294,0.539 0.04,0.218 0.061,0.775 0.061,1.671 V 4.7 c 0,0.819 -0.021,1.355 -0.066,1.612 -0.047,0.259 -0.15,0.439 -0.308,0.54 -0.165,0.104 -0.506,0.155 -1.027,0.155 V 7.369 H -0.87 L -0.615,4.711 H -0.979 C -1.15,5.453 -1.353,5.982 -1.597,6.292 -1.839,6.606 -2.125,6.803 -2.462,6.884 -2.796,6.966 -3.333,7.007 -4.076,7.007 H -5.547 V 2.522 h 1.127 c 0.518,0 0.88,0.044 1.084,0.132 0.208,0.09 0.343,0.225 0.408,0.406 0.068,0.182 0.098,0.535 0.098,1.059 h 0.363 V 0.477 H -2.83 c 0,0.593 -0.048,0.99 -0.148,1.195 -0.099,0.2 -0.241,0.333 -0.434,0.395 -0.192,0.058 -0.514,0.09 -0.969,0.09 h -1.166 v -2.531 c 0,-1.266 0.078,-2.013 0.244,-2.234 0.164,-0.225 0.601,-0.336 1.316,-0.336 h 0.792 c 0.562,0 1.025,0.066 1.389,0.196 0.357,0.132 0.704,0.42 1.031,0.871 C -0.448,-1.428 -0.187,-0.803 0,0"
             style="fill:#000000;fill-opacity:1;fill-rule:nonzero;stroke:none"
             id="path88" />
        </g>
        <g
           id="g90"
           transform="translate(216.8439,32.8499)"
           style="fill:#000000">
          <path
             d="m 0,0 c 1.431,0.833 2.142,1.733 2.142,2.703 0,0.576 -0.156,1.043 -0.476,1.4 C 1.347,4.459 0.922,4.634 0.4,4.634 -0.117,4.634 -0.531,4.463 -0.846,4.123 -1.158,3.784 -1.312,3.359 -1.312,2.851 -1.312,2.155 -0.873,1.203 0,0 M -1.069,-1.297 C -1.823,-1.754 -2.405,-2.289 -2.812,-2.9 -3.227,-3.514 -3.43,-4.107 -3.43,-4.677 c 0,-0.88 0.355,-1.715 1.067,-2.496 0.711,-0.786 1.514,-1.179 2.412,-1.179 1.002,0 1.924,0.494 2.77,1.483 -1.505,2.296 -2.802,4.15 -3.888,5.572 m 4.616,1.014 h 4.608 v -0.5 C 7.576,-0.938 7.069,-1.217 6.638,-1.617 6.204,-2.015 5.758,-2.768 5.299,-3.874 4.915,-4.788 4.559,-5.454 4.237,-5.884 5.003,-6.982 5.606,-7.676 6.042,-7.972 6.48,-8.267 6.944,-8.413 7.438,-8.413 c 0.674,0 1.195,0.323 1.558,0.966 H 9.493 C 9.345,-8.036 9.022,-8.51 8.533,-8.869 c -0.491,-0.36 -1.06,-0.54 -1.702,-0.54 -1.401,0 -2.629,0.698 -3.691,2.1 -1.26,-1.402 -2.593,-2.1 -4,-2.1 -0.689,0 -1.343,0.166 -1.97,0.498 -0.63,0.332 -1.14,0.798 -1.534,1.399 -0.397,0.598 -0.593,1.293 -0.593,2.078 0,0.9 0.245,1.654 0.738,2.266 0.49,0.61 1.432,1.382 2.826,2.309 -0.84,1.166 -1.259,2.22 -1.259,3.161 0,0.745 0.286,1.407 0.857,1.991 0.575,0.582 1.294,0.874 2.16,0.874 0.771,0 1.467,-0.22 2.094,-0.655 C 3.078,4.075 3.39,3.503 3.39,2.798 3.39,1.695 2.36,0.629 0.304,-0.406 c 1.278,-1.722 2.479,-3.388 3.613,-4.996 0.405,0.569 0.728,1.161 0.966,1.771 0.231,0.608 0.355,1.083 0.355,1.427 0,0.819 -0.564,1.293 -1.691,1.421 z"
             style="fill:#000000;fill-opacity:1;fill-rule:nonzero;stroke:none"
             id="path92" />
        </g>
        <g
           id="g94"
           transform="translate(242.1371,29.0148)"
           style="fill:#000000">
          <path
             d="M 0,0 H 0.467 V -4.889 H 0 c -0.123,0.554 -0.349,1.045 -0.669,1.472 -1.218,-1.377 -2.778,-2.064 -4.665,-2.064 -2.001,0 -3.637,0.635 -4.908,1.906 -1.27,1.273 -1.905,2.955 -1.905,5.047 0,1.375 0.294,2.67 0.88,3.881 0.583,1.214 1.404,2.114 2.452,2.703 1.046,0.586 2.195,0.881 3.448,0.881 1.035,0 1.974,-0.21 2.814,-0.638 0.839,-0.423 1.468,-0.896 1.884,-1.412 0.3,0.58 0.482,1.179 0.546,1.802 H 0.341 L 0.467,3.426 H 0 C -0.307,5.293 -0.931,6.596 -1.877,7.333 -2.819,8.072 -3.884,8.44 -5.069,8.44 -6.521,8.44 -7.67,7.848 -8.528,6.662 -9.383,5.481 -9.807,3.786 -9.807,1.58 c 0,-2.088 0.467,-3.689 1.398,-4.803 0.932,-1.109 2.093,-1.666 3.483,-1.666 0.743,0 1.503,0.181 2.28,0.545 0.775,0.36 1.394,0.972 1.842,1.836 C -0.349,-1.643 -0.081,-0.807 0,0"
             style="fill:#000000;fill-opacity:1;fill-rule:nonzero;stroke:none"
             id="path96" />
        </g>
        <g
           id="g98"
           transform="translate(257.7575,24.6915)"
           style="fill:#000000">
          <path
             d="M 0,0 C 0,0.322 0.115,0.598 0.348,0.827 0.576,1.058 0.852,1.171 1.175,1.171 1.501,1.171 1.781,1.058 2.012,0.827 2.24,0.598 2.357,0.322 2.357,0 c 0,-0.33 -0.117,-0.606 -0.35,-0.839 -0.235,-0.23 -0.514,-0.345 -0.832,-0.345 -0.329,0 -0.606,0.12 -0.834,0.357 C 0.115,-0.588 0,-0.313 0,0"
             style="fill:#000000;fill-opacity:1;fill-rule:nonzero;stroke:none"
             id="path100" />
        </g>
      </g>
    </g>
  </g>
</svg>
