<?xml version="1.0" encoding="utf-8"?>
<!-- Generator: Adobe Illustrator 22.0.1, SVG Export Plug-In . SVG Version: 6.00 Build 0)  -->
<svg version="1.1" id="Layer_1" xmlns="http://www.w3.org/2000/svg" xmlns:xlink="http://www.w3.org/1999/xlink" x="0px" y="0px"
	 width="300.2px" height="57.68px" viewBox="0 0 300.2 57.68" enable-background="new 0 0 300.2 57.68" xml:space="preserve">
<path fill="#222A3B" d="M142.17,8.59c0.28,0.01,0.5,0.04,0.66,0.08c0.28,0.08,0.4,0.21,0.4,0.43c0,0.25,0,0.38-0.28,0.76
	c-10.23,14.7-20.56,29.5-31.28,44.19l16.44-0.04c7.36,0.03,9.61-1.18,11.09-3.09c0.64-0.83,1.27-2.56,1.42-3.46
	c0.14-0.64,0.64-1.02,0.64-1.02l0.7,0.02c0,0-1.16,7.22-1.58,8.82c-0.43,1.54-0.53,1.71-2.14,1.71
	c-11.71-0.05-21.34-0.09-33.61-0.14c-0.84,0-1.08-0.44-1.08-0.89c0-0.32,0.14-0.64,0.99-1.79c7.77-10.63,16.52-21.26,24.52-31.91
	c2.43-3.4,4.88-6.8,7.36-10.2c0.21-0.3,0.42-0.61,0.62-0.91l-17.44,0.09c-2.1,0.01-3.76,0.12-5.13,0.31
	c-1.23,0.2-2.31,0.48-3.13,0.88c-2.52,1.23-3.97,5.08-3.97,5.08l-0.76,1.15c0,0-0.42-0.31-0.43-0.83c0-0.77,1.02-6.61,1.37-8.53
	c0.14-0.9,0.7-1.22,0.7-1.22s0.47,0.25,2.37,0.3c0.02,0,0.04,0,0.06,0c4.33-0.01,8.42,0.02,12.5,0.06h0.03L142.17,8.59z
	 M95.72,55.48c1,0.34,3.27,0.49,3.27,0.49l0.07,0.32c0,0-0.61,0.54-1.34,0.53c-1,0-5.94-0.03-10.52-0.05
	c-1.27,0-1.98-0.21-1.98-0.61c0-0.27,0.2-0.41,0.47-0.47c0.4-0.13,0.8-0.73,0.41-1.81l-6.36-16.87l-15.13-0.13l-4.36,12.43
	c-0.61,1.67-0.95,3.26-0.95,4.47c0,1.34,1.4,1.95,2.53,1.95l1.33,0.12l0,0.28c0,0-0.4,0.54-1.01,0.54l-5.12-0.02l-7.65-0.03
	c-0.87,0-1.27-0.54-1.27-0.54l0.01-0.38c0,0,2-0.07,2.53-0.13c3.08-0.39,4.42-2.92,5.64-6.26L72.66,7.07c0,0,0.27-0.74,0.51-0.28
	l17.08,41.83l0-0.01C92.52,54.06,94.37,55.09,95.72,55.48 M78.92,34.62l-6.77-19.49L65.3,34.56L78.92,34.62z M193.36,55.91
	c1,0.34,3.27,0.49,3.27,0.49l0.07,0.32c0,0-0.61,0.54-1.34,0.53c-1,0-5.94-0.03-10.51-0.05c-1.27,0-1.98-0.21-1.98-0.61
	c0-0.27,0.2-0.41,0.47-0.47c0.4-0.13,0.8-0.73,0.41-1.81l-6.36-16.87l-15.12-0.13l-4.36,12.43c-0.61,1.67-0.95,3.26-0.95,4.47
	c-0.01,1.34,1.4,1.95,2.53,1.95l1.34,0.12v0.28c0,0-0.4,0.54-1,0.54l-5.12-0.02l-7.65-0.03c-0.87,0-1.27-0.54-1.27-0.54l0.01-0.38
	c0,0,2-0.07,2.53-0.13c3.08-0.39,4.43-2.92,5.65-6.26l16.35-42.23c0,0,0.26-0.74,0.5-0.28l17.08,41.83l0-0.01
	C190.15,54.48,192,55.52,193.36,55.91 M176.55,35.05l-6.77-19.49l-6.85,19.43L176.55,35.05z M40.66,56.58
	c1.61,0.01,1.68-0.12,2.11-1.66c0.43-1.59,1.59-8.8,1.59-8.8l-0.7-0.01c0,0-0.5,0.38-0.64,1.01c-0.14,0.9-0.78,2.63-1.42,3.45
	c-1.48,1.91-3.2,3.12-10.56,3.08l-2.43-0.01c-7.42-0.04-14.69-0.46-15.82-1.77c-1.08-1.25-1.4-4.83-1.36-14.37l0.05-11.55
	C11.51,15.84,11.55,7.08,11.69,5c0.14-2.27,0.66-3.38,2.55-3.69c0.78-0.13,2.14-0.18,2.14-0.18l0.52-0.39L16.8,0.17
	c0,0-7.62,0.21-7.95,0.21c-0.32,0-8.61-0.28-8.61-0.28L0.1,0.67l0.52,0.39c0,0,1.69,0.07,2.2,0.2c2.14,0.46,2.65,1.5,2.77,3.71
	c0.12,2.08,0.08,10.84,0.04,20.95L5.58,37.34C5.56,43.58,5.53,48.7,5.2,51.42c-0.27,1.88-1.19,3.38-2.49,3.63
	c-0.58,0.13-2.4,0.34-2.4,0.34l-0.07,0.3c0,0,0.34,0.7,1.05,0.7L40.66,56.58z M247.71,56.41c1.21,0.2,2.76,0.17,2.76,0.17l0.31,0.42
	c0,0-0.39,0.51-1.54,0.5l-4.55-0.02c-3.59-0.02-5.19-0.34-6.85-1.25c-2.75-1.49-4.98-4.64-8.61-9.48c-2.68-3.55-5.68-7.86-6.94-9.53
	c-0.26-0.26-0.45-0.39-0.83-0.39l-10.02-0.17c-0.32,0-0.45,0.19-0.45,0.51l-0.01,1.54c-0.03,6.17-0.05,11.23,0.26,13.94
	c0.18,1.86,0.56,3.28,2.49,3.54c0.9,0.13,3.24,0.28,3.24,0.28l0.16,0.38c0,0-0.32,0.51-1.03,0.51c-3.52-0.02-7.61-0.04-7.93-0.04
	c-0.07,0-4.06-0.02-5.98-0.02c-0.7,0-1.02-0.52-1.02-0.52l0.08-0.38c0,0,1.78-0.13,2.36-0.26c1.28-0.25,1.61-1.66,1.88-3.52
	c0.33-2.7,0.35-7.77,0.38-13.94l0.05-11.3c0.04-10.02,0.05-11.82-0.07-13.87c-0.12-2.18-0.63-3.22-2.74-3.67
	c-0.51-0.13-1.6-0.2-2.18-0.21c-0.25,0-0.51-0.39-0.51-0.39l0-0.52c0,0,7.94,0.23,8.26,0.23c0.71,0,5.58-0.16,7.57-0.16
	c4.04,0.02,10.47,0.43,13.86,2.88c1.6,1.16,4.4,4.33,4.38,8.75c-0.02,4.75-2.03,9.5-7.82,14.8c5.23,6.77,9.56,12.5,13.26,16.49
	C243.35,55.42,246.11,56.14,247.71,56.41 M225.11,33.63c2.25-1.53,3.93-4.99,3.95-9.87c0.03-8.02-6.31-12.87-13.17-12.9
	c-1.92-0.01-3.65,0.17-4.3,0.36c-0.32,0.13-0.51,0.38-0.52,0.77l-0.09,21c0,0.32,0.13,0.57,0.45,0.76c0.96,0.59,3.91,1.05,6.73,1.06
	C219.7,34.83,223.63,34.65,225.11,33.63 M255.3,57.5l0-0.57c0,0,0.12-0.39,0.37-0.38c0.23,0,0.24-0.01,0.75-0.03
	c0.01,0,0.01,0,0.02,0h0.06c0.74-0.03,1.54-0.08,1.83-0.15c0.21-0.05,0.39-0.1,0.57-0.16c0.05-0.02,0.11-0.03,0.16-0.05
	c0.2-0.07,0.38-0.15,0.54-0.24c0,0,0.01-0.01,0.02-0.01c0.16-0.09,0.3-0.19,0.43-0.3c0.01-0.01,0.02-0.02,0.03-0.02
	c0.1-0.09,0.18-0.19,0.26-0.29c0.03-0.04,0.08-0.08,0.1-0.12c0.03-0.04,0.05-0.1,0.08-0.14c0.33-0.57,0.48-1.32,0.54-2.34
	c0.12-2.05,0.13-3.84,0.18-13.82l0.02-3.42l0.02-4.38l0.01-3.42c0.04-9.98,0.05-11.78-0.05-13.82c-0.05-1.02-0.19-1.77-0.52-2.34
	c-0.02-0.05-0.05-0.1-0.07-0.14c-0.03-0.05-0.07-0.08-0.1-0.12c-0.08-0.1-0.16-0.2-0.25-0.29c-0.01-0.01-0.02-0.01-0.03-0.02
	c-0.13-0.11-0.27-0.21-0.43-0.31c-0.01,0-0.02-0.01-0.02-0.01c-0.16-0.09-0.34-0.17-0.54-0.24c-0.05-0.02-0.11-0.03-0.16-0.05
	c-0.18-0.06-0.36-0.11-0.57-0.16c-0.29-0.08-1.09-0.13-1.83-0.17c-0.02,0-0.04,0-0.06,0c-0.01,0-0.01,0-0.02,0
	c-0.51-0.02-0.68-0.03-0.9-0.04c-0.26,0-0.45-0.39-0.45-0.39l0-0.58c0,0,19.02,0.17,19.34,0.17l-0.02,0.01
	c6.58,0.17,13.39,0.92,19.62,6.96c1.82,1.76,9.68,12.22,3.65,27.32c-0.62,1.55-2.29,4.29-2.29,4.29c-0.6,0.89-1.2,1.72-1.87,2.4
	c-5.7,5.77-11.48,7.5-19.29,7.47L255.3,57.5z M275.95,55.36c4.36-0.28,6.98-1.06,9.94-2.78c6.14-3.58,8.77-10.15,8.75-18.93
	c-0.02-10.02-4.26-15.89-10.81-19.71c-1.35-0.79-2.11-1.16-3.8-1.71c0,0-1.66-0.55-4.08-0.83c-1.82-0.21-3.03-0.21-4.68-0.16
	c-0.03,0-2.09,0.11-2.96,0.23l-1.53,0.5c-0.25,0.23-0.35,0.53-0.35,1.02c-0.07,2.18-0.1,8.71-0.12,13.63l-0.02,4.45l0,0.9
	l-0.01,2.59l0,0.9l-0.02,4.45c-0.02,4.92-0.05,11.45,0,13.63c0,0.5,0.09,0.8,0.34,1.03l1.52,0.51
	C268.99,55.21,272.99,55.55,275.95,55.36"/>
</svg>
