<svg width="20" height="18" viewBox="0 0 20 18" fill="none" xmlns="http://www.w3.org/2000/svg">
<path d="M4 18C3.71667 18 3.47934 17.904 3.288 17.712C3.09667 17.52 3.00067 17.2827 3 17C2.99934 16.7173 3.09534 16.48 3.288 16.288C3.48067 16.096 3.718 16 4 16H16C16.2833 16 16.521 16.096 16.713 16.288C16.905 16.48 17.0007 16.7173 17 17C16.9993 17.2827 16.9033 17.5203 16.712 17.713C16.5207 17.9057 16.2833 18.0013 16 18H4ZM4.7 14.5C4.21667 14.5 3.78767 14.3417 3.413 14.025C3.03834 13.7083 2.809 13.3083 2.725 12.825L1.725 6.475C1.69167 6.475 1.65434 6.47934 1.613 6.488C1.57167 6.49667 1.534 6.50067 1.5 6.5C1.08334 6.5 0.729336 6.35434 0.438002 6.063C0.146669 5.77167 0.000668939 5.41734 2.27273e-06 5C-0.000664394 4.58267 0.145336 4.22867 0.438002 3.938C0.730669 3.64734 1.08467 3.50134 1.5 3.5C1.91534 3.49867 2.26967 3.64467 2.563 3.938C2.85634 4.23134 3.002 4.58534 3 5C3 5.11667 2.98734 5.225 2.962 5.325C2.93667 5.425 2.90767 5.51667 2.875 5.6L6 7L9.125 2.725C8.94167 2.59167 8.79167 2.41667 8.675 2.2C8.55834 1.98334 8.5 1.75 8.5 1.5C8.5 1.08334 8.646 0.729002 8.938 0.437002C9.23 0.145002 9.584 -0.000664389 10 2.2779e-06C10.416 0.000668945 10.7703 0.146669 11.063 0.438002C11.3557 0.729336 11.5013 1.08334 11.5 1.5C11.5 1.75 11.4417 1.98334 11.325 2.2C11.2083 2.41667 11.0583 2.59167 10.875 2.725L14 7L17.125 5.6C17.0917 5.51667 17.0623 5.425 17.037 5.325C17.0117 5.225 16.9993 5.11667 17 5C17 4.58334 17.146 4.229 17.438 3.937C17.73 3.645 18.084 3.49934 18.5 3.5C18.916 3.50067 19.2703 3.64667 19.563 3.938C19.8557 4.22934 20.0013 4.58334 20 5C19.9987 5.41667 19.853 5.771 19.563 6.063C19.273 6.355 18.9187 6.50067 18.5 6.5C18.4667 6.5 18.4293 6.496 18.388 6.488C18.3467 6.48 18.309 6.47567 18.275 6.475L17.275 12.825C17.1917 13.3083 16.9627 13.7083 16.588 14.025C16.2133 14.3417 15.784 14.5 15.3 14.5H4.7Z" fill="#F96E00"/>
</svg>
