<svg width="40" height="40" viewBox="0 0 40 40" fill="none" xmlns="http://www.w3.org/2000/svg">
<path fill-rule="evenodd" clip-rule="evenodd" d="M11.6665 15.8333C11.6665 15.3731 12.0396 15 12.4998 15H27.4998C27.9601 15 28.3332 15.3731 28.3332 15.8333V28.3333C28.3332 28.7936 27.9601 29.1667 27.4998 29.1667H12.4998C12.0396 29.1667 11.6665 28.7936 11.6665 28.3333V15.8333ZM13.3332 20.8333V23.3333H16.6665V20.8333H13.3332ZM13.3332 27.5V25H16.6665V27.5H13.3332ZM18.3332 27.5V25H21.6665V27.5H18.3332ZM23.3332 27.5V25H26.6665V27.5H23.3332ZM23.3332 20.8333V23.3333H26.6665V20.8333H23.3332ZM18.3332 23.3333H21.6665V20.8333H18.3332V23.3333ZM13.3332 19.1667H26.6665V16.6667H13.3332V19.1667Z" fill="#F96E00"/>
<path fill-rule="evenodd" clip-rule="evenodd" d="M8.3335 4.16671C8.3335 3.70647 8.70658 3.33337 9.16683 3.33337H25.8335C26.0545 3.33337 26.2665 3.42117 26.4227 3.57745L31.4227 8.57746C31.579 8.73371 31.6668 8.94571 31.6668 9.16671V35.8334C31.6668 36.2936 31.2937 36.6667 30.8335 36.6667H9.16683C8.70658 36.6667 8.3335 36.2936 8.3335 35.8334V4.16671ZM10.0002 5.00004V35H30.0002V10H25.8335C25.3732 10 25.0002 9.62696 25.0002 9.16671V5.00004H10.0002ZM26.6668 6.17855V8.33337H28.8217L26.6668 6.17855Z" fill="#F96E00"/>
</svg>
