<svg width="1186" height="659" viewBox="0 0 1186 659" fill="none" xmlns="http://www.w3.org/2000/svg">
<g filter="url(#filter0_d_62_8)">
<path d="M38.5 79.5C38.5 54.6472 58.6472 34.5 83.5 34.5H1102.5C1127.35 34.5 1147.5 54.6472 1147.5 79.5V616.5H38.5V79.5Z" fill="url(#paint0_linear_62_8)"/>
<path d="M83.5 35.5H1102.5C1126.8 35.5 1146.5 55.1995 1146.5 79.5V615.5H39.5V79.5C39.5 55.1995 59.1995 35.5 83.5 35.5Z" stroke="url(#paint1_linear_62_8)" stroke-width="2"/>
</g>
<g clip-path="url(#clip0_62_8)">
<path d="M50.4834 85.5C50.4834 66.17 66.1534 50.5 85.4834 50.5H1098.48C1117.81 50.5 1133.48 66.17 1133.48 85.5V614.5H50.4834V85.5Z" fill="url(#paint2_radial_62_8)"/>
<path d="M96.1929 306.153L59.4289 310.051C54.3428 310.591 50.4834 314.881 50.4834 319.996V612.5C50.4834 618.023 54.9605 622.5 60.4834 622.5H1123.48C1129.01 622.5 1133.48 618.023 1133.48 612.5V222.5C1133.48 216.977 1129.01 212.5 1123.48 212.5H1086.66C1085.12 212.5 1083.61 212.146 1082.23 211.465L1027.34 184.335C1024.96 183.16 1022.22 182.977 1019.71 183.827L971.048 200.291C969.667 200.758 968.201 200.918 966.752 200.759L918.835 195.5C915.94 195.183 913.05 196.143 910.921 198.13L862.521 243.304C860.351 245.329 857.394 246.286 854.449 245.915L813.252 240.733C809.657 240.28 806.099 241.808 803.951 244.726L753.059 313.858C751.572 315.879 749.38 317.266 746.917 317.746L644.911 337.608C643.583 337.867 642.216 337.853 640.893 337.568L590.029 326.606C588.192 326.21 586.281 326.34 584.515 326.98L534.168 345.228C532.767 345.736 531.497 346.551 530.451 347.613L481.649 397.167C479.569 399.279 476.658 400.359 473.704 400.116L424.732 396.086C424.039 396.029 423.342 396.044 422.652 396.132L322.677 408.823C319.348 409.246 316.029 407.971 313.839 405.428L264.407 348.019C263.268 346.696 261.803 345.694 260.157 345.114L206.726 326.261C206.233 326.087 205.728 325.952 205.214 325.858L99.0626 306.263C98.1163 306.089 97.1498 306.052 96.1929 306.153Z" fill="url(#paint3_linear_62_8)"/>
<line x1="479.983" y1="621.5" x2="479.983" y2="389.5" stroke="black" stroke-opacity="0.35" stroke-dasharray="2 2"/>
<line x1="1019.98" y1="621.5" x2="1019.98" y2="178.5" stroke="black" stroke-opacity="0.35" stroke-dasharray="2 2"/>
<circle cx="858.483" cy="176.5" r="8" fill="white" fill-opacity="0.45"/>
<line x1="477.983" y1="402" x2="442.983" y2="402" stroke="white" stroke-linecap="round"/>
<circle cx="480.483" cy="401.5" r="8" fill="white" fill-opacity="0.45"/>
<circle cx="480.483" cy="401.5" r="5" fill="#F96E00"/>
<rect x="-0.5" y="0.5" width="194" height="48" rx="24" transform="matrix(-1 0 0 1 441.483 377.5)" fill="url(#paint4_linear_62_8)"/>
<rect x="-0.5" y="0.5" width="194" height="48" rx="24" transform="matrix(-1 0 0 1 441.483 377.5)" stroke="url(#paint5_linear_62_8)"/>
<path d="M307.183 409V407.26L312.743 401.98C313.21 401.54 313.557 401.153 313.783 400.82C314.01 400.487 314.157 400.18 314.223 399.9C314.303 399.607 314.343 399.333 314.343 399.08C314.343 398.44 314.123 397.947 313.683 397.6C313.243 397.24 312.597 397.06 311.743 397.06C311.063 397.06 310.443 397.18 309.883 397.42C309.337 397.66 308.863 398.027 308.463 398.52L306.643 397.12C307.19 396.387 307.923 395.82 308.843 395.42C309.777 395.007 310.817 394.8 311.963 394.8C312.977 394.8 313.857 394.967 314.603 395.3C315.363 395.62 315.943 396.08 316.343 396.68C316.757 397.28 316.963 397.993 316.963 398.82C316.963 399.273 316.903 399.727 316.783 400.18C316.663 400.62 316.437 401.087 316.103 401.58C315.77 402.073 315.283 402.627 314.643 403.24L309.863 407.78L309.323 406.8H317.503V409H307.183ZM318.511 405.82V404.02L325.411 395H328.191L321.391 404.02L320.091 403.62H331.191V405.82H318.511ZM326.191 409V405.82L326.271 403.62V400.8H328.711V409H326.191ZM338.101 409.2C336.941 409.2 335.934 409.027 335.081 408.68C334.227 408.333 333.567 407.847 333.101 407.22C332.634 406.58 332.401 405.833 332.401 404.98C332.401 404.127 332.627 403.407 333.081 402.82C333.534 402.233 334.187 401.787 335.041 401.48C335.894 401.173 336.914 401.02 338.101 401.02C339.287 401.02 340.307 401.173 341.161 401.48C342.027 401.787 342.687 402.24 343.141 402.84C343.607 403.427 343.841 404.14 343.841 404.98C343.841 405.833 343.601 406.58 343.121 407.22C342.654 407.847 341.987 408.333 341.121 408.68C340.267 409.027 339.261 409.2 338.101 409.2ZM338.101 407.16C339.061 407.16 339.821 406.96 340.381 406.56C340.941 406.16 341.221 405.607 341.221 404.9C341.221 404.207 340.941 403.66 340.381 403.26C339.821 402.86 339.061 402.66 338.101 402.66C337.141 402.66 336.387 402.86 335.841 403.26C335.294 403.66 335.021 404.207 335.021 404.9C335.021 405.607 335.294 406.16 335.841 406.56C336.387 406.96 337.141 407.16 338.101 407.16ZM338.101 402.38C337.021 402.38 336.094 402.24 335.321 401.96C334.547 401.667 333.947 401.247 333.521 400.7C333.107 400.14 332.901 399.473 332.901 398.7C332.901 397.9 333.114 397.213 333.541 396.64C333.981 396.053 334.594 395.6 335.381 395.28C336.167 394.96 337.074 394.8 338.101 394.8C339.141 394.8 340.054 394.96 340.841 395.28C341.627 395.6 342.241 396.053 342.681 396.64C343.121 397.213 343.341 397.9 343.341 398.7C343.341 399.473 343.127 400.14 342.701 400.7C342.287 401.247 341.687 401.667 340.901 401.96C340.114 402.24 339.181 402.38 338.101 402.38ZM338.101 400.78C338.927 400.78 339.581 400.607 340.061 400.26C340.541 399.9 340.781 399.42 340.781 398.82C340.781 398.193 340.534 397.707 340.041 397.36C339.547 397.013 338.901 396.84 338.101 396.84C337.301 396.84 336.661 397.013 336.181 397.36C335.701 397.707 335.461 398.193 335.461 398.82C335.461 399.42 335.694 399.9 336.161 400.26C336.641 400.607 337.287 400.78 338.101 400.78ZM345.823 412.02L346.983 407.6L347.323 409.08C346.856 409.08 346.463 408.94 346.143 408.66C345.836 408.367 345.683 407.973 345.683 407.48C345.683 406.973 345.836 406.573 346.143 406.28C346.463 405.973 346.849 405.82 347.303 405.82C347.769 405.82 348.156 405.973 348.463 406.28C348.769 406.587 348.923 406.987 348.923 407.48C348.923 407.613 348.909 407.76 348.883 407.92C348.856 408.067 348.809 408.24 348.743 408.44C348.689 408.64 348.596 408.893 348.463 409.2L347.443 412.02H345.823ZM356.211 409.2C355.105 409.2 354.105 408.92 353.211 408.36C352.331 407.8 351.638 406.987 351.131 405.92C350.625 404.84 350.371 403.533 350.371 402C350.371 400.467 350.625 399.167 351.131 398.1C351.638 397.02 352.331 396.2 353.211 395.64C354.105 395.08 355.105 394.8 356.211 394.8C357.331 394.8 358.331 395.08 359.211 395.64C360.091 396.2 360.785 397.02 361.291 398.1C361.811 399.167 362.071 400.467 362.071 402C362.071 403.533 361.811 404.84 361.291 405.92C360.785 406.987 360.091 407.8 359.211 408.36C358.331 408.92 357.331 409.2 356.211 409.2ZM356.211 406.94C356.865 406.94 357.431 406.767 357.911 406.42C358.391 406.06 358.765 405.513 359.031 404.78C359.311 404.047 359.451 403.12 359.451 402C359.451 400.867 359.311 399.94 359.031 399.22C358.765 398.487 358.391 397.947 357.911 397.6C357.431 397.24 356.865 397.06 356.211 397.06C355.585 397.06 355.025 397.24 354.531 397.6C354.051 397.947 353.671 398.487 353.391 399.22C353.125 399.94 352.991 400.867 352.991 402C352.991 403.12 353.125 404.047 353.391 404.78C353.671 405.513 354.051 406.06 354.531 406.42C355.025 406.767 355.585 406.94 356.211 406.94ZM363.628 405.82V404.02L370.528 395H373.308L366.508 404.02L365.208 403.62H376.308V405.82H363.628ZM371.308 409V405.82L371.388 403.62V400.8H373.828V409H371.308ZM389.95 409.2C388.03 409.2 386.523 408.66 385.43 407.58C384.35 406.5 383.81 404.94 383.81 402.9V395H386.41V402.8C386.41 404.24 386.716 405.287 387.33 405.94C387.956 406.593 388.836 406.92 389.97 406.92C391.103 406.92 391.976 406.593 392.59 405.94C393.203 405.287 393.51 404.24 393.51 402.8V395H396.07V402.9C396.07 404.94 395.523 406.5 394.43 407.58C393.35 408.66 391.856 409.2 389.95 409.2ZM404.051 409.2C402.958 409.2 401.911 409.047 400.911 408.74C399.911 408.42 399.118 408.013 398.531 407.52L399.431 405.5C399.991 405.94 400.684 406.307 401.511 406.6C402.338 406.893 403.184 407.04 404.051 407.04C404.784 407.04 405.378 406.96 405.831 406.8C406.284 406.64 406.618 406.427 406.831 406.16C407.044 405.88 407.151 405.567 407.151 405.22C407.151 404.793 406.998 404.453 406.691 404.2C406.384 403.933 405.984 403.727 405.491 403.58C405.011 403.42 404.471 403.273 403.871 403.14C403.284 403.007 402.691 402.853 402.091 402.68C401.504 402.493 400.964 402.26 400.471 401.98C399.991 401.687 399.598 401.3 399.291 400.82C398.984 400.34 398.831 399.727 398.831 398.98C398.831 398.22 399.031 397.527 399.431 396.9C399.844 396.26 400.464 395.753 401.291 395.38C402.131 394.993 403.191 394.8 404.471 394.8C405.311 394.8 406.144 394.907 406.971 395.12C407.798 395.333 408.518 395.64 409.131 396.04L408.311 398.06C407.684 397.687 407.038 397.413 406.371 397.24C405.704 397.053 405.064 396.96 404.451 396.96C403.731 396.96 403.144 397.047 402.691 397.22C402.251 397.393 401.924 397.62 401.711 397.9C401.511 398.18 401.411 398.5 401.411 398.86C401.411 399.287 401.558 399.633 401.851 399.9C402.158 400.153 402.551 400.353 403.031 400.5C403.524 400.647 404.071 400.793 404.671 400.94C405.271 401.073 405.864 401.227 406.451 401.4C407.051 401.573 407.591 401.8 408.071 402.08C408.564 402.36 408.958 402.74 409.251 403.22C409.558 403.7 409.711 404.307 409.711 405.04C409.711 405.787 409.504 406.48 409.091 407.12C408.691 407.747 408.071 408.253 407.231 408.64C406.391 409.013 405.331 409.2 404.051 409.2ZM412.289 409V395H418.409C419.929 395 421.263 395.293 422.409 395.88C423.556 396.467 424.449 397.28 425.089 398.32C425.729 399.36 426.049 400.587 426.049 402C426.049 403.4 425.729 404.627 425.089 405.68C424.449 406.72 423.556 407.533 422.409 408.12C421.263 408.707 419.929 409 418.409 409H412.289ZM414.889 406.8H418.289C419.343 406.8 420.249 406.6 421.009 406.2C421.783 405.8 422.376 405.24 422.789 404.52C423.216 403.8 423.429 402.96 423.429 402C423.429 401.027 423.216 400.187 422.789 399.48C422.376 398.76 421.783 398.2 421.009 397.8C420.249 397.4 419.343 397.2 418.289 397.2H414.889V406.8Z" fill="#222831"/>
<path d="M299.046 402C299.046 411.418 291.41 419.062 281.983 419.062C272.556 419.062 264.921 411.418 264.921 402C264.921 392.573 272.556 384.938 281.983 384.938C291.41 384.938 299.046 392.573 299.046 402Z" fill="white"/>
<path d="M289.981 397.682C289.888 397.737 287.671 398.883 287.671 401.425C287.776 404.323 290.468 405.34 290.515 405.34C290.468 405.394 290.108 406.724 289.041 408.119C288.194 409.32 287.254 410.531 285.826 410.531C284.468 410.531 283.98 409.731 282.413 409.731C280.731 409.731 280.254 410.531 278.966 410.531C277.538 410.531 276.529 409.255 275.635 408.065C274.475 406.508 273.488 404.063 273.454 401.717C273.43 400.473 273.686 399.251 274.336 398.212C275.252 396.763 276.889 395.779 278.676 395.746C280.045 395.703 281.264 396.622 282.1 396.622C282.901 396.622 284.398 395.746 286.092 395.746C286.824 395.747 288.774 395.952 289.981 397.682ZM281.984 395.498C281.74 394.362 282.413 393.226 283.04 392.502C283.841 391.626 285.106 391.031 286.197 391.031C286.266 392.167 285.825 393.281 285.036 394.092C284.329 394.968 283.11 395.628 281.984 395.498Z" fill="black"/>
<line x1="1017.98" y1="184" x2="982.983" y2="184" stroke="#222831" stroke-linecap="round"/>
<circle cx="1020.48" cy="183.5" r="8" fill="white" fill-opacity="0.45"/>
<circle cx="1020.48" cy="183.5" r="5" fill="#F96E00"/>
<rect x="-0.5" y="0.5" width="229" height="49" rx="24.5" transform="matrix(-1 0 0 1 981.483 159.5)" fill="url(#paint6_linear_62_8)"/>
<rect x="-0.5" y="0.5" width="229" height="49" rx="24.5" transform="matrix(-1 0 0 1 981.483 159.5)" stroke="url(#paint7_linear_62_8)"/>
<rect x="927.483" y="164.5" width="40" height="40" rx="20" fill="#3FF852"/>
<path d="M935.737 187.572V182.028H937.285V187.572H935.737ZM933.661 185.532V184.068H939.373V185.532H933.661ZM941.607 189V181.32L942.447 182.16H939.927V180.6H943.551V189H941.607ZM947.734 189.144C947.15 189.144 946.57 189.068 945.994 188.916C945.418 188.756 944.93 188.532 944.53 188.244L945.286 186.756C945.606 186.988 945.978 187.172 946.402 187.308C946.826 187.444 947.254 187.512 947.686 187.512C948.174 187.512 948.558 187.416 948.838 187.224C949.118 187.032 949.258 186.768 949.258 186.432C949.258 186.112 949.134 185.86 948.886 185.676C948.638 185.492 948.238 185.4 947.686 185.4H946.798V184.116L949.138 181.464L949.354 182.16H944.95V180.6H950.83V181.86L948.502 184.512L947.518 183.948H948.082C949.114 183.948 949.894 184.18 950.422 184.644C950.95 185.108 951.214 185.704 951.214 186.432C951.214 186.904 951.09 187.348 950.842 187.764C950.594 188.172 950.214 188.504 949.702 188.76C949.19 189.016 948.534 189.144 947.734 189.144ZM953.206 189L958.942 180.6H960.37L954.634 189H953.206ZM953.938 185.136C953.53 185.136 953.17 185.044 952.858 184.86C952.546 184.668 952.298 184.4 952.114 184.056C951.938 183.704 951.85 183.292 951.85 182.82C951.85 182.348 951.938 181.94 952.114 181.596C952.298 181.252 952.546 180.984 952.858 180.792C953.17 180.6 953.53 180.504 953.938 180.504C954.346 180.504 954.706 180.6 955.018 180.792C955.33 180.984 955.574 181.252 955.75 181.596C955.926 181.94 956.014 182.348 956.014 182.82C956.014 183.292 955.926 183.704 955.75 184.056C955.574 184.4 955.33 184.668 955.018 184.86C954.706 185.044 954.346 185.136 953.938 185.136ZM953.938 184.152C954.202 184.152 954.414 184.044 954.574 183.828C954.734 183.604 954.814 183.268 954.814 182.82C954.814 182.372 954.734 182.04 954.574 181.824C954.414 181.6 954.202 181.488 953.938 181.488C953.682 181.488 953.47 181.6 953.302 181.824C953.142 182.04 953.062 182.372 953.062 182.82C953.062 183.26 953.142 183.592 953.302 183.816C953.47 184.04 953.682 184.152 953.938 184.152ZM959.638 189.096C959.238 189.096 958.878 189.004 958.558 188.82C958.246 188.628 958.002 188.36 957.826 188.016C957.65 187.664 957.562 187.252 957.562 186.78C957.562 186.308 957.65 185.9 957.826 185.556C958.002 185.212 958.246 184.944 958.558 184.752C958.878 184.56 959.238 184.464 959.638 184.464C960.054 184.464 960.418 184.56 960.73 184.752C961.042 184.944 961.286 185.212 961.462 185.556C961.638 185.9 961.726 186.308 961.726 186.78C961.726 187.252 961.638 187.664 961.462 188.016C961.286 188.36 961.042 188.628 960.73 188.82C960.418 189.004 960.054 189.096 959.638 189.096ZM959.638 188.112C959.902 188.112 960.114 188.004 960.274 187.788C960.434 187.564 960.514 187.228 960.514 186.78C960.514 186.34 960.434 186.008 960.274 185.784C960.114 185.56 959.902 185.448 959.638 185.448C959.382 185.448 959.17 185.56 959.002 185.784C958.842 186 958.762 186.332 958.762 186.78C958.762 187.228 958.842 187.564 959.002 187.788C959.17 188.004 959.382 188.112 959.638 188.112Z" fill="black"/>
<path d="M812.183 191.5V189.76L817.743 184.48C818.21 184.04 818.557 183.653 818.783 183.32C819.01 182.987 819.157 182.68 819.223 182.4C819.303 182.107 819.343 181.833 819.343 181.58C819.343 180.94 819.123 180.447 818.683 180.1C818.243 179.74 817.597 179.56 816.743 179.56C816.063 179.56 815.443 179.68 814.883 179.92C814.337 180.16 813.863 180.527 813.463 181.02L811.643 179.62C812.19 178.887 812.923 178.32 813.843 177.92C814.777 177.507 815.817 177.3 816.963 177.3C817.977 177.3 818.857 177.467 819.603 177.8C820.363 178.12 820.943 178.58 821.343 179.18C821.757 179.78 821.963 180.493 821.963 181.32C821.963 181.773 821.903 182.227 821.783 182.68C821.663 183.12 821.437 183.587 821.103 184.08C820.77 184.573 820.283 185.127 819.643 185.74L814.863 190.28L814.323 189.3H822.503V191.5H812.183ZM826.344 191.5L832.124 178.54L832.804 179.7H824.864L826.104 178.44V182.08H823.684V177.5H834.564V179.24L829.124 191.5H826.344ZM841.44 191.7C840.28 191.7 839.274 191.527 838.42 191.18C837.567 190.833 836.907 190.347 836.44 189.72C835.974 189.08 835.74 188.333 835.74 187.48C835.74 186.627 835.967 185.907 836.42 185.32C836.874 184.733 837.527 184.287 838.38 183.98C839.234 183.673 840.254 183.52 841.44 183.52C842.627 183.52 843.647 183.673 844.5 183.98C845.367 184.287 846.027 184.74 846.48 185.34C846.947 185.927 847.18 186.64 847.18 187.48C847.18 188.333 846.94 189.08 846.46 189.72C845.994 190.347 845.327 190.833 844.46 191.18C843.607 191.527 842.6 191.7 841.44 191.7ZM841.44 189.66C842.4 189.66 843.16 189.46 843.72 189.06C844.28 188.66 844.56 188.107 844.56 187.4C844.56 186.707 844.28 186.16 843.72 185.76C843.16 185.36 842.4 185.16 841.44 185.16C840.48 185.16 839.727 185.36 839.18 185.76C838.634 186.16 838.36 186.707 838.36 187.4C838.36 188.107 838.634 188.66 839.18 189.06C839.727 189.46 840.48 189.66 841.44 189.66ZM841.44 184.88C840.36 184.88 839.434 184.74 838.66 184.46C837.887 184.167 837.287 183.747 836.86 183.2C836.447 182.64 836.24 181.973 836.24 181.2C836.24 180.4 836.454 179.713 836.88 179.14C837.32 178.553 837.934 178.1 838.72 177.78C839.507 177.46 840.414 177.3 841.44 177.3C842.48 177.3 843.394 177.46 844.18 177.78C844.967 178.1 845.58 178.553 846.02 179.14C846.46 179.713 846.68 180.4 846.68 181.2C846.68 181.973 846.467 182.64 846.04 183.2C845.627 183.747 845.027 184.167 844.24 184.46C843.454 184.74 842.52 184.88 841.44 184.88ZM841.44 183.28C842.267 183.28 842.92 183.107 843.4 182.76C843.88 182.4 844.12 181.92 844.12 181.32C844.12 180.693 843.874 180.207 843.38 179.86C842.887 179.513 842.24 179.34 841.44 179.34C840.64 179.34 840 179.513 839.52 179.86C839.04 180.207 838.8 180.693 838.8 181.32C838.8 181.92 839.034 182.4 839.5 182.76C839.98 183.107 840.627 183.28 841.44 183.28ZM849.163 194.52L850.323 190.1L850.663 191.58C850.196 191.58 849.803 191.44 849.483 191.16C849.176 190.867 849.023 190.473 849.023 189.98C849.023 189.473 849.176 189.073 849.483 188.78C849.803 188.473 850.189 188.32 850.643 188.32C851.109 188.32 851.496 188.473 851.803 188.78C852.109 189.087 852.263 189.487 852.263 189.98C852.263 190.113 852.249 190.26 852.223 190.42C852.196 190.567 852.149 190.74 852.083 190.94C852.029 191.14 851.936 191.393 851.803 191.7L850.783 194.52H849.163ZM855.892 191.5V178.5L857.032 179.68H852.932V177.5H858.492V191.5H855.892ZM861.09 191.5V189.76L866.65 184.48C867.116 184.04 867.463 183.653 867.69 183.32C867.916 182.987 868.063 182.68 868.13 182.4C868.21 182.107 868.25 181.833 868.25 181.58C868.25 180.94 868.03 180.447 867.59 180.1C867.15 179.74 866.503 179.56 865.65 179.56C864.97 179.56 864.35 179.68 863.79 179.92C863.243 180.16 862.77 180.527 862.37 181.02L860.55 179.62C861.096 178.887 861.83 178.32 862.75 177.92C863.683 177.507 864.723 177.3 865.87 177.3C866.883 177.3 867.763 177.467 868.51 177.8C869.27 178.12 869.85 178.58 870.25 179.18C870.663 179.78 870.87 180.493 870.87 181.32C870.87 181.773 870.81 182.227 870.69 182.68C870.57 183.12 870.343 183.587 870.01 184.08C869.676 184.573 869.19 185.127 868.55 185.74L863.77 190.28L863.23 189.3H871.41V191.5H861.09ZM885.458 191.7C883.538 191.7 882.031 191.16 880.938 190.08C879.858 189 879.318 187.44 879.318 185.4V177.5H881.918V185.3C881.918 186.74 882.224 187.787 882.838 188.44C883.464 189.093 884.344 189.42 885.478 189.42C886.611 189.42 887.484 189.093 888.098 188.44C888.711 187.787 889.018 186.74 889.018 185.3V177.5H891.578V185.4C891.578 187.44 891.031 189 889.938 190.08C888.858 191.16 887.364 191.7 885.458 191.7ZM899.559 191.7C898.466 191.7 897.419 191.547 896.419 191.24C895.419 190.92 894.626 190.513 894.039 190.02L894.939 188C895.499 188.44 896.192 188.807 897.019 189.1C897.846 189.393 898.692 189.54 899.559 189.54C900.292 189.54 900.886 189.46 901.339 189.3C901.792 189.14 902.126 188.927 902.339 188.66C902.552 188.38 902.659 188.067 902.659 187.72C902.659 187.293 902.506 186.953 902.199 186.7C901.892 186.433 901.492 186.227 900.999 186.08C900.519 185.92 899.979 185.773 899.379 185.64C898.792 185.507 898.199 185.353 897.599 185.18C897.012 184.993 896.472 184.76 895.979 184.48C895.499 184.187 895.106 183.8 894.799 183.32C894.492 182.84 894.339 182.227 894.339 181.48C894.339 180.72 894.539 180.027 894.939 179.4C895.352 178.76 895.972 178.253 896.799 177.88C897.639 177.493 898.699 177.3 899.979 177.3C900.819 177.3 901.652 177.407 902.479 177.62C903.306 177.833 904.026 178.14 904.639 178.54L903.819 180.56C903.192 180.187 902.546 179.913 901.879 179.74C901.212 179.553 900.572 179.46 899.959 179.46C899.239 179.46 898.652 179.547 898.199 179.72C897.759 179.893 897.432 180.12 897.219 180.4C897.019 180.68 896.919 181 896.919 181.36C896.919 181.787 897.066 182.133 897.359 182.4C897.666 182.653 898.059 182.853 898.539 183C899.032 183.147 899.579 183.293 900.179 183.44C900.779 183.573 901.372 183.727 901.959 183.9C902.559 184.073 903.099 184.3 903.579 184.58C904.072 184.86 904.466 185.24 904.759 185.72C905.066 186.2 905.219 186.807 905.219 187.54C905.219 188.287 905.012 188.98 904.599 189.62C904.199 190.247 903.579 190.753 902.739 191.14C901.899 191.513 900.839 191.7 899.559 191.7ZM907.797 191.5V177.5H913.917C915.437 177.5 916.77 177.793 917.917 178.38C919.064 178.967 919.957 179.78 920.597 180.82C921.237 181.86 921.557 183.087 921.557 184.5C921.557 185.9 921.237 187.127 920.597 188.18C919.957 189.22 919.064 190.033 917.917 190.62C916.77 191.207 915.437 191.5 913.917 191.5H907.797ZM910.397 189.3H913.797C914.85 189.3 915.757 189.1 916.517 188.7C917.29 188.3 917.884 187.74 918.297 187.02C918.724 186.3 918.937 185.46 918.937 184.5C918.937 183.527 918.724 182.687 918.297 181.98C917.884 181.26 917.29 180.7 916.517 180.3C915.757 179.9 914.85 179.7 913.797 179.7H910.397V189.3Z" fill="#222831"/>
<path d="M804.046 184.5C804.046 193.918 796.41 201.562 786.983 201.562C777.556 201.562 769.921 193.918 769.921 184.5C769.921 175.073 777.556 167.438 786.983 167.438C796.41 167.438 804.046 175.073 804.046 184.5Z" fill="white"/>
<path d="M794.981 180.182C794.888 180.237 792.671 181.383 792.671 183.925C792.776 186.823 795.468 187.84 795.515 187.84C795.468 187.894 795.108 189.224 794.041 190.619C793.194 191.82 792.254 193.031 790.826 193.031C789.468 193.031 788.98 192.231 787.413 192.231C785.731 192.231 785.254 193.031 783.966 193.031C782.538 193.031 781.529 191.755 780.635 190.565C779.475 189.008 778.488 186.563 778.454 184.217C778.43 182.973 778.686 181.751 779.336 180.712C780.252 179.263 781.889 178.279 783.676 178.246C785.045 178.203 786.264 179.122 787.1 179.122C787.901 179.122 789.398 178.246 791.092 178.246C791.824 178.247 793.774 178.452 794.981 180.182ZM786.984 177.998C786.74 176.862 787.413 175.726 788.04 175.002C788.841 174.126 790.106 173.531 791.197 173.531C791.266 174.667 790.825 175.781 790.036 176.592C789.329 177.468 788.11 178.128 786.984 177.998Z" fill="black"/>
<path d="M527.483 50.5H657.483V60.5C657.483 68.7843 650.768 75.5 642.483 75.5H542.483C534.199 75.5 527.483 68.7843 527.483 60.5V50.5Z" fill="black"/>
<rect x="891.483" y="341.5" width="134" height="27" rx="5" fill="#F2F2F2" fill-opacity="0.35"/>
<path d="M905.669 359.596C904.925 359.596 904.289 359.432 903.761 359.104C903.233 358.776 902.829 358.304 902.549 357.688C902.277 357.064 902.141 356.304 902.141 355.408C902.141 354.456 902.309 353.652 902.645 352.996C902.981 352.34 903.449 351.844 904.049 351.508C904.649 351.172 905.337 351.004 906.113 351.004C906.513 351.004 906.893 351.044 907.253 351.124C907.621 351.204 907.937 351.328 908.201 351.496L907.745 352.432C907.529 352.28 907.281 352.176 907.001 352.12C906.729 352.064 906.441 352.036 906.137 352.036C905.281 352.036 904.601 352.304 904.097 352.84C903.593 353.368 903.341 354.156 903.341 355.204C903.341 355.372 903.349 355.572 903.365 355.804C903.381 356.036 903.421 356.264 903.485 356.488L903.077 356.08C903.197 355.712 903.385 355.404 903.641 355.156C903.905 354.9 904.217 354.712 904.577 354.592C904.945 354.464 905.341 354.4 905.765 354.4C906.325 354.4 906.821 354.504 907.253 354.712C907.685 354.92 908.025 355.216 908.273 355.6C908.521 355.976 908.645 356.424 908.645 356.944C908.645 357.48 908.513 357.948 908.249 358.348C907.985 358.748 907.629 359.056 907.181 359.272C906.733 359.488 906.229 359.596 905.669 359.596ZM905.621 358.624C905.989 358.624 906.309 358.556 906.581 358.42C906.861 358.284 907.081 358.096 907.241 357.856C907.401 357.608 907.481 357.32 907.481 356.992C907.481 356.496 907.309 356.104 906.965 355.816C906.621 355.52 906.153 355.372 905.561 355.372C905.177 355.372 904.841 355.444 904.553 355.588C904.265 355.732 904.037 355.928 903.869 356.176C903.709 356.416 903.629 356.692 903.629 357.004C903.629 357.292 903.705 357.56 903.857 357.808C904.009 358.048 904.233 358.244 904.529 358.396C904.825 358.548 905.189 358.624 905.621 358.624ZM912.248 359.572C911.608 359.572 911.112 359.4 910.76 359.056C910.408 358.712 910.232 358.22 910.232 357.58V351.748H911.384V357.532C911.384 357.876 911.468 358.14 911.636 358.324C911.812 358.508 912.06 358.6 912.38 358.6C912.74 358.6 913.04 358.5 913.28 358.3L913.64 359.128C913.464 359.28 913.252 359.392 913.004 359.464C912.764 359.536 912.512 359.572 912.248 359.572ZM909.152 354.088V353.14H913.208V354.088H909.152ZM918.428 353.08C918.948 353.08 919.404 353.18 919.796 353.38C920.196 353.58 920.508 353.884 920.732 354.292C920.956 354.7 921.068 355.216 921.068 355.84V359.5H919.916V355.972C919.916 355.356 919.764 354.892 919.46 354.58C919.164 354.268 918.744 354.112 918.2 354.112C917.792 354.112 917.436 354.192 917.132 354.352C916.828 354.512 916.592 354.748 916.424 355.06C916.264 355.372 916.184 355.76 916.184 356.224V359.5H915.032V350.596H916.184V354.856L915.956 354.4C916.164 353.984 916.484 353.66 916.916 353.428C917.348 353.196 917.852 353.08 918.428 353.08ZM922.744 361.276L923.344 358.852L923.5 359.548C923.268 359.548 923.072 359.476 922.912 359.332C922.76 359.188 922.684 358.992 922.684 358.744C922.684 358.504 922.76 358.308 922.912 358.156C923.072 358.004 923.264 357.928 923.488 357.928C923.72 357.928 923.908 358.008 924.052 358.168C924.196 358.32 924.268 358.512 924.268 358.744C924.268 358.824 924.26 358.904 924.244 358.984C924.236 359.056 924.216 359.144 924.184 359.248C924.16 359.344 924.12 359.464 924.064 359.608L923.5 361.276H922.744ZM930.39 355.072H934.722V356.104H930.39V355.072ZM930.51 359.5H929.31V351.1H935.238V352.144H930.51V359.5ZM939.392 359.572C938.712 359.572 938.112 359.432 937.592 359.152C937.08 358.872 936.68 358.488 936.392 358C936.112 357.512 935.972 356.952 935.972 356.32C935.972 355.688 936.108 355.128 936.38 354.64C936.66 354.152 937.04 353.772 937.52 353.5C938.008 353.22 938.556 353.08 939.164 353.08C939.78 353.08 940.324 353.216 940.796 353.488C941.268 353.76 941.636 354.144 941.9 354.64C942.172 355.128 942.308 355.7 942.308 356.356C942.308 356.404 942.304 356.46 942.296 356.524C942.296 356.588 942.292 356.648 942.284 356.704H936.872V355.876H941.684L941.216 356.164C941.224 355.756 941.14 355.392 940.964 355.072C940.788 354.752 940.544 354.504 940.232 354.328C939.928 354.144 939.572 354.052 939.164 354.052C938.764 354.052 938.408 354.144 938.096 354.328C937.784 354.504 937.54 354.756 937.364 355.084C937.188 355.404 937.1 355.772 937.1 356.188V356.38C937.1 356.804 937.196 357.184 937.388 357.52C937.588 357.848 937.864 358.104 938.216 358.288C938.568 358.472 938.972 358.564 939.428 358.564C939.804 358.564 940.144 358.5 940.448 358.372C940.76 358.244 941.032 358.052 941.264 357.796L941.9 358.54C941.612 358.876 941.252 359.132 940.82 359.308C940.396 359.484 939.92 359.572 939.392 359.572ZM947.279 359.572C946.735 359.572 946.243 359.452 945.803 359.212C945.371 358.964 945.027 358.6 944.771 358.12C944.523 357.64 944.399 357.04 944.399 356.32C944.399 355.6 944.527 355 944.783 354.52C945.047 354.04 945.395 353.68 945.827 353.44C946.267 353.2 946.751 353.08 947.279 353.08C947.903 353.08 948.455 353.216 948.935 353.488C949.415 353.76 949.795 354.14 950.075 354.628C950.355 355.108 950.495 355.672 950.495 356.32C950.495 356.968 950.355 357.536 950.075 358.024C949.795 358.512 949.415 358.892 948.935 359.164C948.455 359.436 947.903 359.572 947.279 359.572ZM943.907 359.5V350.596H945.059V354.832L944.939 356.308L945.011 357.784V359.5H943.907ZM947.183 358.564C947.591 358.564 947.955 358.472 948.275 358.288C948.603 358.104 948.859 357.844 949.043 357.508C949.235 357.164 949.331 356.768 949.331 356.32C949.331 355.864 949.235 355.472 949.043 355.144C948.859 354.808 948.603 354.548 948.275 354.364C947.955 354.18 947.591 354.088 947.183 354.088C946.783 354.088 946.419 354.18 946.091 354.364C945.771 354.548 945.515 354.808 945.323 355.144C945.139 355.472 945.047 355.864 945.047 356.32C945.047 356.768 945.139 357.164 945.323 357.508C945.515 357.844 945.771 358.104 946.091 358.288C946.419 358.472 946.783 358.564 947.183 358.564ZM952.087 359.5V353.14H953.191V354.868L953.083 354.436C953.259 353.996 953.555 353.66 953.971 353.428C954.387 353.196 954.899 353.08 955.507 353.08V354.196C955.459 354.188 955.411 354.184 955.363 354.184C955.323 354.184 955.283 354.184 955.243 354.184C954.627 354.184 954.139 354.368 953.779 354.736C953.419 355.104 953.239 355.636 953.239 356.332V359.5H952.087ZM959.685 359.572C959.141 359.572 958.661 359.472 958.245 359.272C957.837 359.072 957.517 358.768 957.285 358.36C957.061 357.944 956.949 357.424 956.949 356.8V353.14H958.101V356.668C958.101 357.292 958.249 357.76 958.545 358.072C958.849 358.384 959.273 358.54 959.817 358.54C960.217 358.54 960.565 358.46 960.861 358.3C961.157 358.132 961.385 357.892 961.545 357.58C961.705 357.26 961.785 356.876 961.785 356.428V353.14H962.937V359.5H961.845V357.784L962.025 358.24C961.817 358.664 961.505 358.992 961.089 359.224C960.673 359.456 960.205 359.572 959.685 359.572ZM969.078 359.5V358.156L969.018 357.904V355.612C969.018 355.124 968.874 354.748 968.586 354.484C968.306 354.212 967.882 354.076 967.314 354.076C966.938 354.076 966.57 354.14 966.21 354.268C965.85 354.388 965.546 354.552 965.298 354.76L964.818 353.896C965.146 353.632 965.538 353.432 965.994 353.296C966.458 353.152 966.942 353.08 967.446 353.08C968.318 353.08 968.99 353.292 969.462 353.716C969.934 354.14 970.17 354.788 970.17 355.66V359.5H969.078ZM966.99 359.572C966.518 359.572 966.102 359.492 965.742 359.332C965.39 359.172 965.118 358.952 964.926 358.672C964.734 358.384 964.638 358.06 964.638 357.7C964.638 357.356 964.718 357.044 964.878 356.764C965.046 356.484 965.314 356.26 965.682 356.092C966.058 355.924 966.562 355.84 967.194 355.84H969.21V356.668H967.242C966.666 356.668 966.278 356.764 966.078 356.956C965.878 357.148 965.778 357.38 965.778 357.652C965.778 357.964 965.902 358.216 966.15 358.408C966.398 358.592 966.742 358.684 967.182 358.684C967.614 358.684 967.99 358.588 968.31 358.396C968.638 358.204 968.874 357.924 969.018 357.556L969.246 358.348C969.094 358.724 968.826 359.024 968.442 359.248C968.058 359.464 967.574 359.572 966.99 359.572ZM972.302 359.5V353.14H973.406V354.868L973.298 354.436C973.474 353.996 973.77 353.66 974.186 353.428C974.602 353.196 975.114 353.08 975.722 353.08V354.196C975.674 354.188 975.626 354.184 975.578 354.184C975.538 354.184 975.498 354.184 975.458 354.184C974.842 354.184 974.354 354.368 973.994 354.736C973.634 355.104 973.454 355.636 973.454 356.332V359.5H972.302ZM977.676 361.9C977.372 361.9 977.076 361.848 976.788 361.744C976.5 361.648 976.252 361.504 976.044 361.312L976.536 360.448C976.696 360.6 976.872 360.716 977.064 360.796C977.256 360.876 977.46 360.916 977.676 360.916C977.956 360.916 978.188 360.844 978.372 360.7C978.556 360.556 978.728 360.3 978.888 359.932L979.284 359.056L979.404 358.912L981.9 353.14H983.028L979.944 360.136C979.76 360.584 979.552 360.936 979.32 361.192C979.096 361.448 978.848 361.628 978.576 361.732C978.304 361.844 978.004 361.9 977.676 361.9ZM979.188 359.704L976.284 353.14H977.484L979.956 358.804L979.188 359.704ZM986.677 359.5V358.684L990.097 355.384C990.401 355.096 990.625 354.844 990.769 354.628C990.921 354.404 991.021 354.2 991.069 354.016C991.125 353.824 991.153 353.64 991.153 353.464C991.153 353.032 991.001 352.692 990.697 352.444C990.393 352.196 989.949 352.072 989.365 352.072C988.917 352.072 988.513 352.148 988.153 352.3C987.793 352.444 987.481 352.672 987.217 352.984L986.401 352.276C986.721 351.868 987.149 351.556 987.685 351.34C988.229 351.116 988.825 351.004 989.473 351.004C990.057 351.004 990.565 351.1 990.997 351.292C991.429 351.476 991.761 351.744 991.993 352.096C992.233 352.448 992.353 352.864 992.353 353.344C992.353 353.616 992.317 353.884 992.245 354.148C992.173 354.412 992.037 354.692 991.837 354.988C991.637 355.284 991.349 355.616 990.973 355.984L987.925 358.924L987.637 358.456H992.713V359.5H986.677ZM997.12 359.596C996.464 359.596 995.876 359.428 995.356 359.092C994.844 358.756 994.436 358.268 994.132 357.628C993.836 356.988 993.688 356.212 993.688 355.3C993.688 354.388 993.836 353.612 994.132 352.972C994.436 352.332 994.844 351.844 995.356 351.508C995.876 351.172 996.464 351.004 997.12 351.004C997.768 351.004 998.352 351.172 998.872 351.508C999.392 351.844 999.8 352.332 1000.1 352.972C1000.39 353.612 1000.54 354.388 1000.54 355.3C1000.54 356.212 1000.39 356.988 1000.1 357.628C999.8 358.268 999.392 358.756 998.872 359.092C998.352 359.428 997.768 359.596 997.12 359.596ZM997.12 358.528C997.56 358.528 997.944 358.408 998.272 358.168C998.608 357.928 998.868 357.568 999.052 357.088C999.244 356.608 999.34 356.012 999.34 355.3C999.34 354.588 999.244 353.992 999.052 353.512C998.868 353.032 998.608 352.672 998.272 352.432C997.944 352.192 997.56 352.072 997.12 352.072C996.68 352.072 996.292 352.192 995.956 352.432C995.62 352.672 995.356 353.032 995.164 353.512C994.98 353.992 994.888 354.588 994.888 355.3C994.888 356.012 994.98 356.608 995.164 357.088C995.356 357.568 995.62 357.928 995.956 358.168C996.292 358.408 996.68 358.528 997.12 358.528ZM1001.56 359.5V358.684L1004.98 355.384C1005.28 355.096 1005.51 354.844 1005.65 354.628C1005.8 354.404 1005.9 354.2 1005.95 354.016C1006.01 353.824 1006.04 353.64 1006.04 353.464C1006.04 353.032 1005.88 352.692 1005.58 352.444C1005.28 352.196 1004.83 352.072 1004.25 352.072C1003.8 352.072 1003.4 352.148 1003.04 352.3C1002.68 352.444 1002.36 352.672 1002.1 352.984L1001.28 352.276C1001.6 351.868 1002.03 351.556 1002.57 351.34C1003.11 351.116 1003.71 351.004 1004.36 351.004C1004.94 351.004 1005.45 351.1 1005.88 351.292C1006.31 351.476 1006.64 351.744 1006.88 352.096C1007.12 352.448 1007.24 352.864 1007.24 353.344C1007.24 353.616 1007.2 353.884 1007.13 354.148C1007.06 354.412 1006.92 354.692 1006.72 354.988C1006.52 355.284 1006.23 355.616 1005.86 355.984L1002.81 358.924L1002.52 358.456H1007.6V359.5H1001.56ZM1012.1 359.596C1011.36 359.596 1010.72 359.432 1010.19 359.104C1009.66 358.776 1009.26 358.304 1008.98 357.688C1008.71 357.064 1008.57 356.304 1008.57 355.408C1008.57 354.456 1008.74 353.652 1009.08 352.996C1009.41 352.34 1009.88 351.844 1010.48 351.508C1011.08 351.172 1011.77 351.004 1012.54 351.004C1012.94 351.004 1013.32 351.044 1013.68 351.124C1014.05 351.204 1014.37 351.328 1014.63 351.496L1014.18 352.432C1013.96 352.28 1013.71 352.176 1013.43 352.12C1013.16 352.064 1012.87 352.036 1012.57 352.036C1011.71 352.036 1011.03 352.304 1010.53 352.84C1010.02 353.368 1009.77 354.156 1009.77 355.204C1009.77 355.372 1009.78 355.572 1009.8 355.804C1009.81 356.036 1009.85 356.264 1009.92 356.488L1009.51 356.08C1009.63 355.712 1009.82 355.404 1010.07 355.156C1010.34 354.9 1010.65 354.712 1011.01 354.592C1011.38 354.464 1011.77 354.4 1012.2 354.4C1012.76 354.4 1013.25 354.504 1013.68 354.712C1014.12 354.92 1014.46 355.216 1014.7 355.6C1014.95 355.976 1015.08 356.424 1015.08 356.944C1015.08 357.48 1014.94 357.948 1014.68 358.348C1014.42 358.748 1014.06 359.056 1013.61 359.272C1013.16 359.488 1012.66 359.596 1012.1 359.596ZM1012.05 358.624C1012.42 358.624 1012.74 358.556 1013.01 358.42C1013.29 358.284 1013.51 358.096 1013.67 357.856C1013.83 357.608 1013.91 357.32 1013.91 356.992C1013.91 356.496 1013.74 356.104 1013.4 355.816C1013.05 355.52 1012.58 355.372 1011.99 355.372C1011.61 355.372 1011.27 355.444 1010.98 355.588C1010.7 355.732 1010.47 355.928 1010.3 356.176C1010.14 356.416 1010.06 356.692 1010.06 357.004C1010.06 357.292 1010.14 357.56 1010.29 357.808C1010.44 358.048 1010.66 358.244 1010.96 358.396C1011.26 358.548 1011.62 358.624 1012.05 358.624Z" fill="black"/>
<rect x="351.466" y="478.5" width="134" height="27" rx="5" fill="#F2F2F2" fill-opacity="0.35"/>
<path d="M362.091 496.5V495.684L365.511 492.384C365.815 492.096 366.039 491.844 366.183 491.628C366.335 491.404 366.435 491.2 366.483 491.016C366.539 490.824 366.567 490.64 366.567 490.464C366.567 490.032 366.415 489.692 366.111 489.444C365.807 489.196 365.363 489.072 364.779 489.072C364.331 489.072 363.927 489.148 363.567 489.3C363.207 489.444 362.895 489.672 362.631 489.984L361.815 489.276C362.135 488.868 362.563 488.556 363.099 488.34C363.643 488.116 364.239 488.004 364.887 488.004C365.471 488.004 365.979 488.1 366.411 488.292C366.843 488.476 367.175 488.744 367.407 489.096C367.647 489.448 367.767 489.864 367.767 490.344C367.767 490.616 367.731 490.884 367.659 491.148C367.587 491.412 367.451 491.692 367.251 491.988C367.051 492.284 366.763 492.616 366.387 492.984L363.339 495.924L363.051 495.456H368.127V496.5H362.091ZM371.682 496.596C371.09 496.596 370.514 496.504 369.954 496.32C369.402 496.136 368.95 495.888 368.598 495.576L369.15 494.628C369.43 494.892 369.794 495.108 370.242 495.276C370.69 495.444 371.17 495.528 371.682 495.528C372.306 495.528 372.79 495.396 373.134 495.132C373.486 494.86 373.662 494.496 373.662 494.04C373.662 493.6 373.494 493.248 373.158 492.984C372.83 492.712 372.306 492.576 371.586 492.576H370.914V491.736L373.41 488.664L373.578 489.144H368.982V488.1H374.526V488.916L372.042 491.976L371.418 491.604H371.814C372.83 491.604 373.59 491.832 374.094 492.288C374.606 492.744 374.862 493.324 374.862 494.028C374.862 494.5 374.746 494.932 374.514 495.324C374.282 495.716 373.93 496.028 373.458 496.26C372.994 496.484 372.402 496.596 371.682 496.596ZM376.497 496.5V490.14H377.601V491.868L377.493 491.436C377.669 490.996 377.965 490.66 378.381 490.428C378.797 490.196 379.309 490.08 379.917 490.08V491.196C379.869 491.188 379.821 491.184 379.773 491.184C379.733 491.184 379.693 491.184 379.653 491.184C379.037 491.184 378.549 491.368 378.189 491.736C377.829 492.104 377.649 492.636 377.649 493.332V496.5H376.497ZM383.907 496.572C383.291 496.572 382.739 496.436 382.251 496.164C381.771 495.892 381.391 495.512 381.111 495.024C380.831 494.536 380.691 493.968 380.691 493.32C380.691 492.672 380.831 492.108 381.111 491.628C381.391 491.14 381.771 490.76 382.251 490.488C382.739 490.216 383.291 490.08 383.907 490.08C384.443 490.08 384.927 490.2 385.359 490.44C385.791 490.68 386.135 491.04 386.391 491.52C386.655 492 386.787 492.6 386.787 493.32C386.787 494.04 386.659 494.64 386.403 495.12C386.155 495.6 385.815 495.964 385.383 496.212C384.951 496.452 384.459 496.572 383.907 496.572ZM384.003 495.564C384.403 495.564 384.763 495.472 385.083 495.288C385.411 495.104 385.667 494.844 385.851 494.508C386.043 494.164 386.139 493.768 386.139 493.32C386.139 492.864 386.043 492.472 385.851 492.144C385.667 491.808 385.411 491.548 385.083 491.364C384.763 491.18 384.403 491.088 384.003 491.088C383.595 491.088 383.231 491.18 382.911 491.364C382.591 491.548 382.335 491.808 382.143 492.144C381.951 492.472 381.855 492.864 381.855 493.32C381.855 493.768 381.951 494.164 382.143 494.508C382.335 494.844 382.591 495.104 382.911 495.288C383.231 495.472 383.595 495.564 384.003 495.564ZM386.175 496.5V494.784L386.247 493.308L386.127 491.832V487.596H387.279V496.5H386.175ZM389.002 498.276L389.602 495.852L389.758 496.548C389.526 496.548 389.33 496.476 389.17 496.332C389.018 496.188 388.942 495.992 388.942 495.744C388.942 495.504 389.018 495.308 389.17 495.156C389.33 495.004 389.522 494.928 389.746 494.928C389.978 494.928 390.166 495.008 390.31 495.168C390.454 495.32 390.526 495.512 390.526 495.744C390.526 495.824 390.518 495.904 390.502 495.984C390.494 496.056 390.474 496.144 390.442 496.248C390.418 496.344 390.378 496.464 390.322 496.608L389.758 498.276H389.002ZM396.648 496.596C396.152 496.596 395.688 496.492 395.256 496.284C394.824 496.076 394.472 495.776 394.2 495.384L394.896 494.568C395.128 494.888 395.388 495.136 395.676 495.312C395.972 495.48 396.296 495.564 396.648 495.564C397.608 495.564 398.088 494.996 398.088 493.86V489.144H395.052V488.1H399.276V493.8C399.276 494.736 399.052 495.436 398.604 495.9C398.164 496.364 397.512 496.596 396.648 496.596ZM405.5 496.5V495.156L405.44 494.904V492.612C405.44 492.124 405.296 491.748 405.008 491.484C404.728 491.212 404.304 491.076 403.736 491.076C403.36 491.076 402.992 491.14 402.632 491.268C402.272 491.388 401.968 491.552 401.72 491.76L401.24 490.896C401.568 490.632 401.96 490.432 402.416 490.296C402.88 490.152 403.364 490.08 403.868 490.08C404.74 490.08 405.412 490.292 405.884 490.716C406.356 491.14 406.592 491.788 406.592 492.66V496.5H405.5ZM403.412 496.572C402.94 496.572 402.524 496.492 402.164 496.332C401.812 496.172 401.54 495.952 401.348 495.672C401.156 495.384 401.06 495.06 401.06 494.7C401.06 494.356 401.14 494.044 401.3 493.764C401.468 493.484 401.736 493.26 402.104 493.092C402.48 492.924 402.984 492.84 403.616 492.84H405.632V493.668H403.664C403.088 493.668 402.7 493.764 402.5 493.956C402.3 494.148 402.2 494.38 402.2 494.652C402.2 494.964 402.324 495.216 402.572 495.408C402.82 495.592 403.164 495.684 403.604 495.684C404.036 495.684 404.412 495.588 404.732 495.396C405.06 495.204 405.296 494.924 405.44 494.556L405.668 495.348C405.516 495.724 405.248 496.024 404.864 496.248C404.48 496.464 403.996 496.572 403.412 496.572ZM412.12 490.08C412.64 490.08 413.096 490.18 413.488 490.38C413.888 490.58 414.2 490.884 414.424 491.292C414.648 491.7 414.76 492.216 414.76 492.84V496.5H413.608V492.972C413.608 492.356 413.456 491.892 413.152 491.58C412.856 491.268 412.436 491.112 411.892 491.112C411.484 491.112 411.128 491.192 410.824 491.352C410.52 491.512 410.284 491.748 410.116 492.06C409.956 492.372 409.876 492.76 409.876 493.224V496.5H408.724V490.14H409.828V491.856L409.648 491.4C409.856 490.984 410.176 490.66 410.608 490.428C411.04 490.196 411.544 490.08 412.12 490.08ZM419.568 496.572C419.024 496.572 418.544 496.472 418.128 496.272C417.72 496.072 417.4 495.768 417.168 495.36C416.944 494.944 416.832 494.424 416.832 493.8V490.14H417.984V493.668C417.984 494.292 418.132 494.76 418.428 495.072C418.732 495.384 419.156 495.54 419.7 495.54C420.1 495.54 420.448 495.46 420.744 495.3C421.04 495.132 421.268 494.892 421.428 494.58C421.588 494.26 421.668 493.876 421.668 493.428V490.14H422.82V496.5H421.728V494.784L421.908 495.24C421.7 495.664 421.388 495.992 420.972 496.224C420.556 496.456 420.088 496.572 419.568 496.572ZM428.961 496.5V495.156L428.901 494.904V492.612C428.901 492.124 428.757 491.748 428.469 491.484C428.189 491.212 427.765 491.076 427.197 491.076C426.821 491.076 426.453 491.14 426.093 491.268C425.733 491.388 425.429 491.552 425.181 491.76L424.701 490.896C425.029 490.632 425.421 490.432 425.877 490.296C426.341 490.152 426.825 490.08 427.329 490.08C428.201 490.08 428.873 490.292 429.345 490.716C429.817 491.14 430.053 491.788 430.053 492.66V496.5H428.961ZM426.873 496.572C426.401 496.572 425.985 496.492 425.625 496.332C425.273 496.172 425.001 495.952 424.809 495.672C424.617 495.384 424.521 495.06 424.521 494.7C424.521 494.356 424.601 494.044 424.761 493.764C424.929 493.484 425.197 493.26 425.565 493.092C425.941 492.924 426.445 492.84 427.077 492.84H429.093V493.668H427.125C426.549 493.668 426.161 493.764 425.961 493.956C425.761 494.148 425.661 494.38 425.661 494.652C425.661 494.964 425.785 495.216 426.033 495.408C426.281 495.592 426.625 495.684 427.065 495.684C427.497 495.684 427.873 495.588 428.193 495.396C428.521 495.204 428.757 494.924 428.901 494.556L429.129 495.348C428.977 495.724 428.709 496.024 428.325 496.248C427.941 496.464 427.457 496.572 426.873 496.572ZM432.185 496.5V490.14H433.289V491.868L433.181 491.436C433.357 490.996 433.653 490.66 434.069 490.428C434.485 490.196 434.997 490.08 435.605 490.08V491.196C435.557 491.188 435.509 491.184 435.461 491.184C435.421 491.184 435.381 491.184 435.341 491.184C434.725 491.184 434.237 491.368 433.877 491.736C433.517 492.104 433.337 492.636 433.337 493.332V496.5H432.185ZM437.558 498.9C437.254 498.9 436.958 498.848 436.67 498.744C436.382 498.648 436.134 498.504 435.926 498.312L436.418 497.448C436.578 497.6 436.754 497.716 436.946 497.796C437.138 497.876 437.342 497.916 437.558 497.916C437.838 497.916 438.07 497.844 438.254 497.7C438.438 497.556 438.61 497.3 438.77 496.932L439.166 496.056L439.286 495.912L441.782 490.14H442.91L439.826 497.136C439.642 497.584 439.434 497.936 439.202 498.192C438.978 498.448 438.73 498.628 438.458 498.732C438.186 498.844 437.886 498.9 437.558 498.9ZM439.07 496.704L436.166 490.14H437.366L439.838 495.804L439.07 496.704ZM446.56 496.5V495.684L449.98 492.384C450.284 492.096 450.508 491.844 450.652 491.628C450.804 491.404 450.904 491.2 450.952 491.016C451.008 490.824 451.036 490.64 451.036 490.464C451.036 490.032 450.884 489.692 450.58 489.444C450.276 489.196 449.832 489.072 449.248 489.072C448.8 489.072 448.396 489.148 448.036 489.3C447.676 489.444 447.364 489.672 447.1 489.984L446.284 489.276C446.604 488.868 447.032 488.556 447.568 488.34C448.112 488.116 448.708 488.004 449.356 488.004C449.94 488.004 450.448 488.1 450.88 488.292C451.312 488.476 451.644 488.744 451.876 489.096C452.116 489.448 452.236 489.864 452.236 490.344C452.236 490.616 452.2 490.884 452.128 491.148C452.056 491.412 451.92 491.692 451.72 491.988C451.52 492.284 451.232 492.616 450.856 492.984L447.808 495.924L447.52 495.456H452.596V496.5H446.56ZM457.003 496.596C456.347 496.596 455.759 496.428 455.239 496.092C454.727 495.756 454.319 495.268 454.015 494.628C453.719 493.988 453.571 493.212 453.571 492.3C453.571 491.388 453.719 490.612 454.015 489.972C454.319 489.332 454.727 488.844 455.239 488.508C455.759 488.172 456.347 488.004 457.003 488.004C457.651 488.004 458.235 488.172 458.755 488.508C459.275 488.844 459.683 489.332 459.979 489.972C460.275 490.612 460.423 491.388 460.423 492.3C460.423 493.212 460.275 493.988 459.979 494.628C459.683 495.268 459.275 495.756 458.755 496.092C458.235 496.428 457.651 496.596 457.003 496.596ZM457.003 495.528C457.443 495.528 457.827 495.408 458.155 495.168C458.491 494.928 458.751 494.568 458.935 494.088C459.127 493.608 459.223 493.012 459.223 492.3C459.223 491.588 459.127 490.992 458.935 490.512C458.751 490.032 458.491 489.672 458.155 489.432C457.827 489.192 457.443 489.072 457.003 489.072C456.563 489.072 456.175 489.192 455.839 489.432C455.503 489.672 455.239 490.032 455.047 490.512C454.863 490.992 454.771 491.588 454.771 492.3C454.771 493.012 454.863 493.608 455.047 494.088C455.239 494.568 455.503 494.928 455.839 495.168C456.175 495.408 456.563 495.528 457.003 495.528ZM461.443 496.5V495.684L464.863 492.384C465.167 492.096 465.391 491.844 465.535 491.628C465.687 491.404 465.787 491.2 465.835 491.016C465.891 490.824 465.919 490.64 465.919 490.464C465.919 490.032 465.767 489.692 465.463 489.444C465.159 489.196 464.715 489.072 464.131 489.072C463.683 489.072 463.279 489.148 462.919 489.3C462.559 489.444 462.247 489.672 461.983 489.984L461.167 489.276C461.487 488.868 461.915 488.556 462.451 488.34C462.995 488.116 463.591 488.004 464.239 488.004C464.823 488.004 465.331 488.1 465.763 488.292C466.195 488.476 466.527 488.744 466.759 489.096C466.999 489.448 467.119 489.864 467.119 490.344C467.119 490.616 467.083 490.884 467.011 491.148C466.939 491.412 466.803 491.692 466.603 491.988C466.403 492.284 466.115 492.616 465.739 492.984L462.691 495.924L462.403 495.456H467.479V496.5H461.443ZM471.982 496.596C471.238 496.596 470.602 496.432 470.074 496.104C469.546 495.776 469.142 495.304 468.862 494.688C468.59 494.064 468.454 493.304 468.454 492.408C468.454 491.456 468.622 490.652 468.958 489.996C469.294 489.34 469.762 488.844 470.362 488.508C470.962 488.172 471.65 488.004 472.426 488.004C472.826 488.004 473.206 488.044 473.566 488.124C473.934 488.204 474.25 488.328 474.514 488.496L474.058 489.432C473.842 489.28 473.594 489.176 473.314 489.12C473.042 489.064 472.754 489.036 472.45 489.036C471.594 489.036 470.914 489.304 470.41 489.84C469.906 490.368 469.654 491.156 469.654 492.204C469.654 492.372 469.662 492.572 469.678 492.804C469.694 493.036 469.734 493.264 469.798 493.488L469.39 493.08C469.51 492.712 469.698 492.404 469.954 492.156C470.218 491.9 470.53 491.712 470.89 491.592C471.258 491.464 471.654 491.4 472.078 491.4C472.638 491.4 473.134 491.504 473.566 491.712C473.998 491.92 474.338 492.216 474.586 492.6C474.834 492.976 474.958 493.424 474.958 493.944C474.958 494.48 474.826 494.948 474.562 495.348C474.298 495.748 473.942 496.056 473.494 496.272C473.046 496.488 472.542 496.596 471.982 496.596ZM471.934 495.624C472.302 495.624 472.622 495.556 472.894 495.42C473.174 495.284 473.394 495.096 473.554 494.856C473.714 494.608 473.794 494.32 473.794 493.992C473.794 493.496 473.622 493.104 473.278 492.816C472.934 492.52 472.466 492.372 471.874 492.372C471.49 492.372 471.154 492.444 470.866 492.588C470.578 492.732 470.35 492.928 470.182 493.176C470.022 493.416 469.942 493.692 469.942 494.004C469.942 494.292 470.018 494.56 470.17 494.808C470.322 495.048 470.546 495.244 470.842 495.396C471.138 495.548 471.502 495.624 471.934 495.624Z" fill="black"/>
</g>
<defs>
<filter id="filter0_d_62_8" x="0" y="0" width="1186" height="659" filterUnits="userSpaceOnUse" color-interpolation-filters="sRGB">
<feFlood flood-opacity="0" result="BackgroundImageFix"/>
<feColorMatrix in="SourceAlpha" type="matrix" values="0 0 0 0 0 0 0 0 0 0 0 0 0 0 0 0 0 0 127 0" result="hardAlpha"/>
<feOffset dy="4"/>
<feGaussianBlur stdDeviation="19.25"/>
<feComposite in2="hardAlpha" operator="out"/>
<feColorMatrix type="matrix" values="0 0 0 0 1 0 0 0 0 1 0 0 0 0 1 0 0 0 0.5 0"/>
<feBlend mode="normal" in2="BackgroundImageFix" result="effect1_dropShadow_62_8"/>
<feBlend mode="normal" in="SourceGraphic" in2="effect1_dropShadow_62_8" result="shape"/>
</filter>
<linearGradient id="paint0_linear_62_8" x1="593" y1="-24.4734" x2="593" y2="616.5" gradientUnits="userSpaceOnUse">
<stop/>
<stop offset="1"/>
</linearGradient>
<linearGradient id="paint1_linear_62_8" x1="593" y1="34.5" x2="593" y2="616.5" gradientUnits="userSpaceOnUse">
<stop stop-color="white"/>
<stop offset="1" stop-color="#E7E7E7" stop-opacity="0"/>
</linearGradient>
<radialGradient id="paint2_radial_62_8" cx="0" cy="0" r="1" gradientUnits="userSpaceOnUse" gradientTransform="translate(565.483 895.981) rotate(-90) scale(1012.71 1627.63)">
<stop stop-color="#F96E00"/>
<stop offset="0.520819" stop-color="white"/>
</radialGradient>
<linearGradient id="paint3_linear_62_8" x1="591.983" y1="182.5" x2="591.983" y2="622.5" gradientUnits="userSpaceOnUse">
<stop stop-color="#F96E00"/>
<stop offset="1" stop-color="white"/>
</linearGradient>
<linearGradient id="paint4_linear_62_8" x1="97.5" y1="49" x2="97.5" y2="-33.283" gradientUnits="userSpaceOnUse">
<stop stop-color="white"/>
<stop offset="1" stop-color="#F96E00" stop-opacity="0"/>
</linearGradient>
<linearGradient id="paint5_linear_62_8" x1="97.5" y1="49" x2="97.5" y2="0" gradientUnits="userSpaceOnUse">
<stop stop-color="#F96E00"/>
<stop offset="1" stop-color="white"/>
</linearGradient>
<linearGradient id="paint6_linear_62_8" x1="115" y1="50" x2="115" y2="-33.9623" gradientUnits="userSpaceOnUse">
<stop stop-color="white"/>
<stop offset="1" stop-color="#F96E00" stop-opacity="0"/>
</linearGradient>
<linearGradient id="paint7_linear_62_8" x1="115" y1="50" x2="115" y2="0" gradientUnits="userSpaceOnUse">
<stop stop-color="#F96E00"/>
<stop offset="1" stop-color="white"/>
</linearGradient>
<clipPath id="clip0_62_8">
<path d="M50.4834 85.5C50.4834 66.17 66.1534 50.5 85.4834 50.5H1098.48C1117.81 50.5 1133.48 66.17 1133.48 85.5V614.5H50.4834V85.5Z" fill="white"/>
</clipPath>
</defs>
</svg>
