<svg width="1199" height="679" viewBox="0 0 1199 679" fill="none" xmlns="http://www.w3.org/2000/svg">
<g filter="url(#filter0_d_76_280)">
<rect x="38.5" y="34.5" width="1122" height="602" rx="35" fill="url(#paint0_linear_76_280)"/>
<rect x="39.5" y="35.5" width="1120" height="600" rx="34" stroke="url(#paint1_linear_76_280)" stroke-width="2"/>
</g>
<g clip-path="url(#clip0_76_280)">
<rect x="57.5" y="63.5" width="1083" height="543" rx="35" fill="url(#paint2_radial_76_280)"/>
<path d="M1133.51 111.115C1133.51 111.115 1084.57 133.586 1070.59 133.586C1056.6 133.586 1049.61 111.115 1035.63 111.115C1021.65 111.115 916.775 133.586 888.809 163.548C860.844 193.509 848.854 212.354 818.895 238.451C800.672 254.326 783.938 275.903 769.955 275.903C755.973 275.903 734.998 253.432 714.024 253.432C693.05 253.432 693.05 298.375 679.067 313.355C665.084 328.336 623.136 298.375 609.153 313.355C595.17 328.336 595.17 365.788 581.187 365.788C567.205 365.788 546.23 298.375 518.265 298.375C490.299 298.375 441.359 298.375 427.377 313.355C413.394 328.336 406.402 350.807 385.428 350.807C364.454 350.807 371.445 313.355 350.471 313.355C329.497 313.355 280.557 410.731 252.592 410.731C224.626 410.731 189.669 328.336 175.686 313.355C161.703 298.375 140.632 320.237 119.755 313.355C108.085 309.508 103.709 301.212 91.7893 298.375C81.1281 295.836 74.4849 295.836 63.8237 298.375" stroke="#3DA864" stroke-width="0.644339" stroke-linecap="round"/>
<path d="M1077.17 133.433C1091.24 133.433 1140.5 111.115 1140.5 111.115V590.5H56.8326V298.375C67.5635 295.854 81.2417 294.578 91.9725 297.099C103.97 299.917 108.374 308.157 120.121 311.977C141.134 318.813 162.344 297.099 176.418 311.977C190.492 326.856 225.677 408.689 253.826 408.689C281.974 408.689 331.234 311.977 352.345 311.977C373.456 311.977 366.419 349.174 387.531 349.174C408.642 349.174 415.679 326.856 429.753 311.977C443.827 297.099 493.087 297.099 521.235 297.099C549.384 297.099 570.495 364.053 584.569 364.053C598.643 364.053 598.643 326.856 612.718 311.977C626.792 297.099 669.014 326.856 683.089 311.977C697.163 297.099 697.163 252.463 718.274 252.463C739.385 252.463 760.497 274.781 774.571 274.781C788.645 274.781 805.488 253.35 823.831 237.584C853.986 211.664 866.053 192.948 894.202 163.19C922.35 133.433 1027.91 111.115 1041.98 111.115C1056.05 111.115 1063.09 133.433 1077.17 133.433Z" fill="url(#paint3_linear_76_280)"/>
<line x1="579" y1="365" x2="544" y2="365" stroke="white" stroke-linecap="round"/>
<line x1="865" y1="191" x2="836" y2="191" stroke="#222831" stroke-linecap="round"/>
<circle cx="579.5" cy="364.5" r="8" fill="white" fill-opacity="0.45"/>
<circle cx="865.5" cy="189.5" r="8" fill="white" fill-opacity="0.45"/>
<circle cx="579.5" cy="364.5" r="5" fill="#F96E00"/>
<circle cx="865.5" cy="189.5" r="5" fill="#F96E00"/>
<rect x="-0.5" y="0.5" width="140" height="48" rx="24" transform="matrix(-1 0 0 1 555.5 340.5)" fill="url(#paint4_linear_76_280)"/>
<rect x="-0.5" y="0.5" width="140" height="48" rx="24" transform="matrix(-1 0 0 1 555.5 340.5)" stroke="url(#paint5_linear_76_280)"/>
<path d="M481.276 371.5V358.9H484.272V371.5H481.276ZM476.32 366.6V363.8H489.228V366.6H476.32ZM494.837 375V356.8L496.433 358.452H490.693V355.4H498.477V375H494.837ZM508.525 375.28C507.143 375.28 505.79 375.084 504.465 374.692C503.158 374.281 502.057 373.721 501.161 373.012L502.729 370.184C503.438 370.763 504.297 371.229 505.305 371.584C506.313 371.939 507.367 372.116 508.469 372.116C509.775 372.116 510.793 371.855 511.521 371.332C512.249 370.791 512.613 370.063 512.613 369.148C512.613 368.252 512.277 367.543 511.605 367.02C510.933 366.497 509.85 366.236 508.357 366.236H506.565V363.744L512.165 357.08L512.641 358.452H502.113V355.4H515.469V357.836L509.869 364.5L507.965 363.38H509.057C511.465 363.38 513.266 363.921 514.461 365.004C515.674 366.068 516.281 367.44 516.281 369.12C516.281 370.221 516.001 371.239 515.441 372.172C514.881 373.105 514.022 373.861 512.865 374.44C511.726 375 510.279 375.28 508.525 375.28ZM521.132 375L534.516 355.4H537.26L523.876 375H521.132ZM522.756 365.956C521.842 365.956 521.03 365.732 520.32 365.284C519.611 364.836 519.06 364.211 518.668 363.408C518.276 362.605 518.08 361.663 518.08 360.58C518.08 359.497 518.276 358.555 518.668 357.752C519.06 356.949 519.611 356.324 520.32 355.876C521.03 355.428 521.842 355.204 522.756 355.204C523.708 355.204 524.53 355.428 525.22 355.876C525.93 356.324 526.48 356.949 526.872 357.752C527.264 358.555 527.46 359.497 527.46 360.58C527.46 361.663 527.264 362.605 526.872 363.408C526.48 364.211 525.93 364.836 525.22 365.284C524.53 365.732 523.708 365.956 522.756 365.956ZM522.784 363.996C523.531 363.996 524.11 363.707 524.52 363.128C524.95 362.531 525.164 361.681 525.164 360.58C525.164 359.479 524.95 358.639 524.52 358.06C524.11 357.463 523.531 357.164 522.784 357.164C522.038 357.164 521.44 357.463 520.992 358.06C520.563 358.657 520.348 359.497 520.348 360.58C520.348 361.663 520.563 362.503 520.992 363.1C521.44 363.697 522.038 363.996 522.784 363.996ZM535.608 375.196C534.694 375.196 533.882 374.972 533.172 374.524C532.463 374.076 531.912 373.451 531.52 372.648C531.128 371.845 530.932 370.903 530.932 369.82C530.932 368.737 531.128 367.795 531.52 366.992C531.912 366.189 532.463 365.564 533.172 365.116C533.882 364.668 534.694 364.444 535.608 364.444C536.56 364.444 537.382 364.668 538.072 365.116C538.782 365.564 539.332 366.189 539.724 366.992C540.116 367.795 540.312 368.737 540.312 369.82C540.312 370.903 540.116 371.845 539.724 372.648C539.332 373.451 538.782 374.076 538.072 374.524C537.382 374.972 536.56 375.196 535.608 375.196ZM535.608 373.236C536.355 373.236 536.943 372.937 537.372 372.34C537.802 371.743 538.016 370.903 538.016 369.82C538.016 368.737 537.802 367.897 537.372 367.3C536.943 366.703 536.355 366.404 535.608 366.404C534.88 366.404 534.292 366.703 533.844 367.3C533.415 367.879 533.2 368.719 533.2 369.82C533.2 370.921 533.415 371.771 533.844 372.368C534.292 372.947 534.88 373.236 535.608 373.236Z" fill="#222831"/>
<path d="M467.063 365C467.063 374.418 459.427 382.062 450 382.062C440.573 382.062 432.938 374.418 432.938 365C432.938 355.573 440.573 347.938 450 347.938C459.427 347.938 467.063 355.573 467.063 365Z" fill="white"/>
<path d="M457.998 360.682C457.904 360.737 455.688 361.883 455.688 364.425C455.792 367.323 458.485 368.34 458.531 368.34C458.485 368.394 458.125 369.724 457.057 371.119C456.21 372.32 455.27 373.531 453.842 373.531C452.484 373.531 451.997 372.731 450.43 372.731C448.747 372.731 448.271 373.531 446.983 373.531C445.555 373.531 444.545 372.255 443.652 371.065C442.491 369.508 441.505 367.063 441.47 364.717C441.447 363.473 441.703 362.251 442.352 361.212C443.269 359.763 444.905 358.779 446.693 358.746C448.062 358.703 449.281 359.622 450.117 359.622C450.917 359.622 452.415 358.746 454.109 358.746C454.84 358.747 456.79 358.952 457.998 360.682ZM450.001 358.498C449.757 357.362 450.43 356.226 451.057 355.502C451.858 354.626 453.123 354.031 454.213 354.031C454.283 355.167 453.842 356.281 453.053 357.092C452.345 357.968 451.126 358.628 450.001 358.498Z" fill="black"/>
<rect x="-0.5" y="0.5" width="149" height="48" rx="24" transform="matrix(-1 0 0 1 843.5 165.5)" fill="#F2F2F2"/>
<rect x="-0.5" y="0.5" width="149" height="48" rx="24" transform="matrix(-1 0 0 1 843.5 165.5)" stroke="#F96E00"/>
<path d="M760.276 196.5V183.9H763.272V196.5H760.276ZM755.32 191.6V188.8H768.228V191.6H755.32ZM770.585 200V197.564L778.369 190.172C779.023 189.556 779.508 189.015 779.825 188.548C780.143 188.081 780.348 187.652 780.441 187.26C780.553 186.849 780.609 186.467 780.609 186.112C780.609 185.216 780.301 184.525 779.685 184.04C779.069 183.536 778.164 183.284 776.969 183.284C776.017 183.284 775.149 183.452 774.365 183.788C773.6 184.124 772.937 184.637 772.377 185.328L769.829 183.368C770.595 182.341 771.621 181.548 772.909 180.988C774.216 180.409 775.672 180.12 777.277 180.12C778.696 180.12 779.928 180.353 780.973 180.82C782.037 181.268 782.849 181.912 783.409 182.752C783.988 183.592 784.277 184.591 784.277 185.748C784.277 186.383 784.193 187.017 784.025 187.652C783.857 188.268 783.54 188.921 783.073 189.612C782.607 190.303 781.925 191.077 781.029 191.936L774.337 198.292L773.581 196.92H785.033V200H770.585ZM795.31 200.28C793.761 200.28 792.361 199.888 791.11 199.104C789.878 198.32 788.908 197.181 788.198 195.688C787.489 194.176 787.134 192.347 787.134 190.2C787.134 188.053 787.489 186.233 788.198 184.74C788.908 183.228 789.878 182.08 791.11 181.296C792.361 180.512 793.761 180.12 795.31 180.12C796.878 180.12 798.278 180.512 799.51 181.296C800.742 182.08 801.713 183.228 802.422 184.74C803.15 186.233 803.514 188.053 803.514 190.2C803.514 192.347 803.15 194.176 802.422 195.688C801.713 197.181 800.742 198.32 799.51 199.104C798.278 199.888 796.878 200.28 795.31 200.28ZM795.31 197.116C796.225 197.116 797.018 196.873 797.69 196.388C798.362 195.884 798.885 195.119 799.258 194.092C799.65 193.065 799.846 191.768 799.846 190.2C799.846 188.613 799.65 187.316 799.258 186.308C798.885 185.281 798.362 184.525 797.69 184.04C797.018 183.536 796.225 183.284 795.31 183.284C794.433 183.284 793.649 183.536 792.958 184.04C792.286 184.525 791.754 185.281 791.362 186.308C790.989 187.316 790.802 188.613 790.802 190.2C790.802 191.768 790.989 193.065 791.362 194.092C791.754 195.119 792.286 195.884 792.958 196.388C793.649 196.873 794.433 197.116 795.31 197.116ZM808.718 200L822.102 180.4H824.846L811.462 200H808.718ZM810.342 190.956C809.428 190.956 808.616 190.732 807.906 190.284C807.197 189.836 806.646 189.211 806.254 188.408C805.862 187.605 805.666 186.663 805.666 185.58C805.666 184.497 805.862 183.555 806.254 182.752C806.646 181.949 807.197 181.324 807.906 180.876C808.616 180.428 809.428 180.204 810.342 180.204C811.294 180.204 812.116 180.428 812.806 180.876C813.516 181.324 814.066 181.949 814.458 182.752C814.85 183.555 815.046 184.497 815.046 185.58C815.046 186.663 814.85 187.605 814.458 188.408C814.066 189.211 813.516 189.836 812.806 190.284C812.116 190.732 811.294 190.956 810.342 190.956ZM810.37 188.996C811.117 188.996 811.696 188.707 812.106 188.128C812.536 187.531 812.75 186.681 812.75 185.58C812.75 184.479 812.536 183.639 812.106 183.06C811.696 182.463 811.117 182.164 810.37 182.164C809.624 182.164 809.026 182.463 808.578 183.06C808.149 183.657 807.934 184.497 807.934 185.58C807.934 186.663 808.149 187.503 808.578 188.1C809.026 188.697 809.624 188.996 810.37 188.996ZM823.194 200.196C822.28 200.196 821.468 199.972 820.758 199.524C820.049 199.076 819.498 198.451 819.106 197.648C818.714 196.845 818.518 195.903 818.518 194.82C818.518 193.737 818.714 192.795 819.106 191.992C819.498 191.189 820.049 190.564 820.758 190.116C821.468 189.668 822.28 189.444 823.194 189.444C824.146 189.444 824.968 189.668 825.658 190.116C826.368 190.564 826.918 191.189 827.31 191.992C827.702 192.795 827.898 193.737 827.898 194.82C827.898 195.903 827.702 196.845 827.31 197.648C826.918 198.451 826.368 199.076 825.658 199.524C824.968 199.972 824.146 200.196 823.194 200.196ZM823.194 198.236C823.941 198.236 824.529 197.937 824.958 197.34C825.388 196.743 825.602 195.903 825.602 194.82C825.602 193.737 825.388 192.897 824.958 192.3C824.529 191.703 823.941 191.404 823.194 191.404C822.466 191.404 821.878 191.703 821.43 192.3C821.001 192.879 820.786 193.719 820.786 194.82C820.786 195.921 821.001 196.771 821.43 197.368C821.878 197.947 822.466 198.236 823.194 198.236Z" fill="#222831"/>
<path d="M746.063 190C746.063 199.418 738.427 207.062 729 207.062C719.573 207.062 711.938 199.418 711.938 190C711.938 180.573 719.573 172.938 729 172.938C738.427 172.938 746.063 180.573 746.063 190Z" fill="#222831"/>
<path d="M736.998 185.682C736.904 185.737 734.688 186.883 734.688 189.425C734.792 192.323 737.485 193.34 737.531 193.34C737.485 193.394 737.125 194.724 736.057 196.119C735.21 197.32 734.27 198.531 732.842 198.531C731.484 198.531 730.997 197.731 729.43 197.731C727.747 197.731 727.271 198.531 725.983 198.531C724.555 198.531 723.545 197.255 722.652 196.065C721.491 194.508 720.505 192.063 720.47 189.717C720.447 188.473 720.703 187.251 721.352 186.212C722.269 184.763 723.905 183.779 725.693 183.746C727.062 183.703 728.281 184.622 729.117 184.622C729.917 184.622 731.415 183.746 733.109 183.746C733.84 183.747 735.79 183.952 736.998 185.682ZM729.001 183.498C728.757 182.362 729.43 181.226 730.057 180.502C730.858 179.626 732.123 179.031 733.213 179.031C733.283 180.167 732.842 181.281 732.053 182.092C731.345 182.968 730.126 183.628 729.001 183.498Z" fill="white"/>
</g>
<defs>
<filter id="filter0_d_76_280" x="0" y="0" width="1199" height="679" filterUnits="userSpaceOnUse" color-interpolation-filters="sRGB">
<feFlood flood-opacity="0" result="BackgroundImageFix"/>
<feColorMatrix in="SourceAlpha" type="matrix" values="0 0 0 0 0 0 0 0 0 0 0 0 0 0 0 0 0 0 127 0" result="hardAlpha"/>
<feOffset dy="4"/>
<feGaussianBlur stdDeviation="19.25"/>
<feComposite in2="hardAlpha" operator="out"/>
<feColorMatrix type="matrix" values="0 0 0 0 1 0 0 0 0 1 0 0 0 0 1 0 0 0 0.5 0"/>
<feBlend mode="normal" in2="BackgroundImageFix" result="effect1_dropShadow_76_280"/>
<feBlend mode="normal" in="SourceGraphic" in2="effect1_dropShadow_76_280" result="shape"/>
</filter>
<linearGradient id="paint0_linear_76_280" x1="599.5" y1="-26.5" x2="599.5" y2="636.5" gradientUnits="userSpaceOnUse">
<stop/>
<stop offset="1"/>
</linearGradient>
<linearGradient id="paint1_linear_76_280" x1="599.5" y1="34.5" x2="599.5" y2="636.5" gradientUnits="userSpaceOnUse">
<stop stop-color="white"/>
<stop offset="1" stop-color="#E7E7E7" stop-opacity="0"/>
</linearGradient>
<radialGradient id="paint2_radial_76_280" cx="0" cy="0" r="1" gradientUnits="userSpaceOnUse" gradientTransform="translate(572.5 877.5) rotate(-90) scale(975 1627.63)">
<stop stop-color="#F96E00"/>
<stop offset="0.520819" stop-color="white"/>
</radialGradient>
<linearGradient id="paint3_linear_76_280" x1="602.162" y1="101.5" x2="599.008" y2="581.003" gradientUnits="userSpaceOnUse">
<stop stop-color="#F96E00"/>
<stop offset="1" stop-color="#F96E00" stop-opacity="0"/>
</linearGradient>
<linearGradient id="paint4_linear_76_280" x1="70.5" y1="49" x2="70.5" y2="-33.283" gradientUnits="userSpaceOnUse">
<stop stop-color="white"/>
<stop offset="1" stop-color="#F96E00" stop-opacity="0"/>
</linearGradient>
<linearGradient id="paint5_linear_76_280" x1="70.5" y1="49" x2="70.5" y2="0" gradientUnits="userSpaceOnUse">
<stop stop-color="#F96E00"/>
<stop offset="1" stop-color="white"/>
</linearGradient>
<clipPath id="clip0_76_280">
<rect x="57.5" y="63.5" width="1083" height="543" rx="35" fill="white"/>
</clipPath>
</defs>
</svg>
